%TF.GenerationSoftware,KiCad,Pcbnew,(5.1.8-0-10_14)*%
%TF.CreationDate,2020-12-22T21:08:17+00:00*%
%TF.ProjectId,sudokillall,7375646f-6b69-46c6-9c61-6c6c2e6b6963,rev?*%
%TF.SameCoordinates,Original*%
%TF.FileFunction,Legend,Bot*%
%TF.FilePolarity,Positive*%
%FSLAX46Y46*%
G04 Gerber Fmt 4.6, Leading zero omitted, Abs format (unit mm)*
G04 Created by KiCad (PCBNEW (5.1.8-0-10_14)) date 2020-12-22 21:08:17*
%MOMM*%
%LPD*%
G01*
G04 APERTURE LIST*
%ADD10C,0.012000*%
%ADD11C,1.250000*%
%ADD12C,0.381000*%
%ADD13C,0.100000*%
G04 APERTURE END LIST*
D10*
X222263841Y-50734943D02*
G75*
G02*
X222292381Y-50725030I2237707J-6396328D01*
G01*
X221470267Y-51096329D02*
G75*
G02*
X221607921Y-51020164I2310174J-4012744D01*
G01*
X221607921Y-51020164D02*
G75*
G02*
X221618857Y-51014555I489363J-940638D01*
G01*
X221095617Y-50996140D02*
G75*
G02*
X221182118Y-50940895I2698476J-4129857D01*
G01*
X221061821Y-51018647D02*
G75*
G02*
X221095617Y-50996140I3130688J-4664311D01*
G01*
X220981634Y-51073257D02*
G75*
G02*
X221061821Y-51018647I2811525J-4042116D01*
G01*
X222104773Y-50793328D02*
G75*
G02*
X222156032Y-50773502I1655331J-4203533D01*
G01*
X220946957Y-51097634D02*
G75*
G02*
X220981635Y-51073257I3521380J-4972577D01*
G01*
X220869628Y-51153725D02*
G75*
G02*
X220946957Y-51097634I3059619J-4136693D01*
G01*
X220835409Y-51179091D02*
G75*
G02*
X220869628Y-51153726I3025656J-4046136D01*
G01*
X221194183Y-51269402D02*
G75*
G02*
X221217784Y-51253668I1532208J-2272744D01*
G01*
X221217784Y-51253668D02*
G75*
G02*
X221317444Y-51189004I2592392J-3886237D01*
G01*
X220661030Y-51691430D02*
G75*
G02*
X220720438Y-51637349I3275488J-3538452D01*
G01*
X220720438Y-51637349D02*
G75*
G02*
X220814312Y-51556175I2962505J-3331133D01*
G01*
X221526042Y-50745104D02*
G75*
G02*
X221594163Y-50710143I2606183J-4994395D01*
G01*
X221459895Y-50779429D02*
G75*
G02*
X221526041Y-50745103I2491616J-4720522D01*
G01*
X221329333Y-50851925D02*
G75*
G02*
X221459896Y-50779429I2475234J-4304012D01*
G01*
X221325134Y-50854429D02*
X221329333Y-50851925D01*
X221211716Y-50922269D02*
G75*
G02*
X221325134Y-50854429I2603501J-4223976D01*
G01*
X221182118Y-50940895D02*
G75*
G02*
X221211716Y-50922268I2246503J-3536898D01*
G01*
X221317444Y-51189004D02*
G75*
G02*
X221346266Y-51170871I3066622J-4842404D01*
G01*
X221346266Y-51170871D02*
G75*
G02*
X221470267Y-51096329I2467398J-3964135D01*
G01*
X220814313Y-51556175D02*
G75*
G02*
X220849449Y-51527318I3611485J-4361540D01*
G01*
X220849449Y-51527317D02*
G75*
G02*
X220929036Y-51463147I2937176J-3561371D01*
G01*
X220929036Y-51463147D02*
G75*
G02*
X220961421Y-51437853I2348452J-2973426D01*
G01*
X220961420Y-51437853D02*
G75*
G02*
X221069935Y-51356361I2761214J-3563842D01*
G01*
X221943907Y-50859262D02*
G75*
G02*
X222019366Y-50827054I1766096J-4033158D01*
G01*
X221073604Y-51353645D02*
X221069935Y-51356362D01*
X221073603Y-51353645D02*
G75*
G02*
X221194183Y-51269402I2663508J-3683923D01*
G01*
X220758996Y-51238005D02*
G75*
G02*
X220835408Y-51179091I2861301J-3632113D01*
G01*
X220726789Y-51263158D02*
G75*
G02*
X220758997Y-51238005I2717476J-3446545D01*
G01*
X220643179Y-51331667D02*
G75*
G02*
X220726788Y-51263158I3082509J-3676594D01*
G01*
X221926550Y-50560425D02*
G75*
G02*
X222026986Y-50520737I1930223J-4737821D01*
G01*
X221876808Y-50580885D02*
G75*
G02*
X221926550Y-50560424I1672875J-3996124D01*
G01*
X221793305Y-50617044D02*
G75*
G02*
X221876808Y-50580885I1966905J-4427615D01*
G01*
X221732946Y-50643962D02*
G75*
G02*
X221793306Y-50617045I2001118J-4406299D01*
G01*
X221661085Y-50677899D02*
G75*
G02*
X221732946Y-50643962I2222465J-4612940D01*
G01*
X221594163Y-50710143D02*
G75*
G02*
X221661085Y-50677899I2139702J-4355366D01*
G01*
X220627975Y-51722016D02*
X220490126Y-51857296D01*
X220490126Y-51857296D02*
X220358841Y-51997613D01*
X220358841Y-51997613D02*
X220234188Y-52142720D01*
X220234188Y-52142720D02*
X220116233Y-52292368D01*
X220116233Y-52292368D02*
X220005042Y-52446309D01*
X220005042Y-52446309D02*
X219900681Y-52604294D01*
X219900681Y-52604294D02*
X219803218Y-52766077D01*
X219803218Y-52766077D02*
X219712719Y-52931407D01*
X219712719Y-52931407D02*
X219629250Y-53100038D01*
X219629250Y-53100038D02*
X219552879Y-53271721D01*
X219552879Y-53271721D02*
X219483671Y-53446208D01*
X219483671Y-53446208D02*
X219421693Y-53623250D01*
X219421693Y-53623250D02*
X219367012Y-53802600D01*
X219367012Y-53802600D02*
X219319694Y-53984010D01*
X219319694Y-53984010D02*
X219279806Y-54167230D01*
X219279806Y-54167230D02*
X219247414Y-54352013D01*
X219247414Y-54352013D02*
X219222585Y-54538111D01*
X219222585Y-54538111D02*
X219205386Y-54725276D01*
X219205386Y-54725276D02*
X219195883Y-54913259D01*
X219195883Y-54913259D02*
X219194142Y-55101812D01*
X219194142Y-55101812D02*
X219200231Y-55290687D01*
X219200231Y-55290687D02*
X219214215Y-55479636D01*
X219214215Y-55479636D02*
X219236162Y-55668411D01*
X219236162Y-55668411D02*
X219266138Y-55856763D01*
X219266138Y-55856763D02*
X219304209Y-56044444D01*
X219304209Y-56044444D02*
X219350442Y-56231207D01*
X219350442Y-56231207D02*
X219404903Y-56416803D01*
X219404903Y-56416803D02*
X219467660Y-56600983D01*
X219467660Y-56600983D02*
X219538778Y-56783500D01*
X219538778Y-56783500D02*
X219618325Y-56964105D01*
X219618325Y-56964105D02*
X219706366Y-57142550D01*
X219706366Y-57142550D02*
X219802969Y-57318588D01*
X220627975Y-51722016D02*
G75*
G02*
X220661030Y-51691430I3672136J-3935463D01*
G01*
X222158819Y-43700449D02*
X222398108Y-44114575D01*
X222158819Y-43700448D02*
G75*
G02*
X222210395Y-43507691I122116J70604D01*
G01*
X222210395Y-43507690D02*
G75*
G02*
X222403153Y-43559267I70596J-122148D01*
G01*
X222642442Y-43973428D02*
X222403153Y-43559267D01*
X222642441Y-43973428D02*
G75*
G02*
X222590866Y-44166186I-122116J-70605D01*
G01*
X222590866Y-44166186D02*
G75*
G02*
X222520416Y-44185130I-70440J121487D01*
G01*
X222520416Y-44185131D02*
G75*
G02*
X222398108Y-44114575I-151J141027D01*
G01*
X221560049Y-44401453D02*
G75*
G02*
X221508332Y-44208731I70462J122209D01*
G01*
X221508332Y-44208731D02*
G75*
G02*
X221701090Y-44157014I122230J-70492D01*
G01*
X222115780Y-44396268D02*
X221701090Y-44157014D01*
X222115780Y-44396267D02*
G75*
G02*
X222167497Y-44589025I-70503J-122233D01*
G01*
X222167498Y-44589025D02*
G75*
G02*
X222045119Y-44659616I-122238J70540D01*
G01*
X222045118Y-44659616D02*
G75*
G02*
X221974739Y-44640707I44J140591D01*
G01*
X221560049Y-44401453D02*
X221974739Y-44640707D01*
X221392832Y-45309010D02*
G75*
G02*
X221251721Y-45167898I7J141118D01*
G01*
X221251721Y-45167898D02*
G75*
G02*
X221392833Y-45026787I141118J-7D01*
G01*
X221871376Y-45026787D02*
X221392833Y-45026787D01*
X221871375Y-45026787D02*
G75*
G02*
X222012487Y-45167898I-6J-141118D01*
G01*
X222012487Y-45167898D02*
G75*
G02*
X221871376Y-45309010I-141118J6D01*
G01*
X221392833Y-45309010D02*
X221871376Y-45309010D01*
X224325332Y-45167898D02*
G75*
G02*
X224466444Y-45026787I141118J-7D01*
G01*
X224944952Y-45026787D02*
X224466444Y-45026787D01*
X224944952Y-45026788D02*
G75*
G02*
X225086063Y-45167898I-6J-141117D01*
G01*
X225086064Y-45167899D02*
G75*
G02*
X224944952Y-45309010I-141118J7D01*
G01*
X224466444Y-45309010D02*
X224944952Y-45309010D01*
X224466443Y-45309009D02*
G75*
G02*
X224325333Y-45167898I7J141117D01*
G01*
X224170323Y-44588990D02*
G75*
G02*
X224222075Y-44396197I122265J70522D01*
G01*
X224636730Y-44156943D02*
X224222075Y-44396197D01*
X224636729Y-44156943D02*
G75*
G02*
X224829523Y-44208660I70523J-122315D01*
G01*
X224829523Y-44208660D02*
G75*
G02*
X224777771Y-44401418I-122286J-70495D01*
G01*
X224363116Y-44640672D02*
X224777771Y-44401418D01*
X224363115Y-44640672D02*
G75*
G02*
X224292701Y-44659581I-70333J121353D01*
G01*
X224292701Y-44659581D02*
G75*
G02*
X224170322Y-44588990I-184J141057D01*
G01*
X223746847Y-44166116D02*
G75*
G02*
X223695448Y-43973287I70714J122114D01*
G01*
X223935267Y-43559126D02*
X223695448Y-43973287D01*
X223935265Y-43559126D02*
G75*
G02*
X224128095Y-43507726I122112J-70702D01*
G01*
X224128095Y-43507725D02*
G75*
G02*
X224179495Y-43700555I-70702J-122112D01*
G01*
X223939676Y-44114716D02*
X224179495Y-43700555D01*
X223939676Y-44114715D02*
G75*
G02*
X223817404Y-44185130I-122074J70609D01*
G01*
X223817403Y-44185130D02*
G75*
G02*
X223746848Y-44166115I-61J140179D01*
G01*
X223169174Y-44011247D02*
G75*
G02*
X223028063Y-43870135I7J141118D01*
G01*
X223028063Y-43391556D02*
X223028063Y-43870135D01*
X223028063Y-43391557D02*
G75*
G02*
X223169174Y-43250445I141118J-6D01*
G01*
X223169174Y-43250445D02*
G75*
G02*
X223310286Y-43391556I-6J-141118D01*
G01*
X223310286Y-43870135D02*
X223310286Y-43391556D01*
X223310285Y-43870136D02*
G75*
G02*
X223169174Y-44011246I-141117J7D01*
G01*
X220531667Y-49869121D02*
X219715057Y-50340538D01*
X220552975Y-49866299D02*
G75*
G02*
X220531667Y-49869121I-29649J141997D01*
G01*
X220430243Y-49591273D02*
X220440987Y-49610645D01*
X220440987Y-49610645D02*
X220451464Y-49629618D01*
X220451464Y-49629618D02*
X220461644Y-49648216D01*
X220461644Y-49648216D02*
X220471495Y-49666462D01*
X220471495Y-49666462D02*
X220480988Y-49684377D01*
X220480988Y-49684377D02*
X220490091Y-49701987D01*
X220490091Y-49701987D02*
X220498774Y-49719313D01*
X220498774Y-49719313D02*
X220507007Y-49736379D01*
X220507007Y-49736379D02*
X220514758Y-49753207D01*
X220514758Y-49753207D02*
X220521997Y-49769822D01*
X220521997Y-49769822D02*
X220528695Y-49786245D01*
X220528695Y-49786245D02*
X220534819Y-49802500D01*
X220534819Y-49802500D02*
X220540339Y-49818609D01*
X220540339Y-49818609D02*
X220545226Y-49834597D01*
X220545226Y-49834597D02*
X220549447Y-49850486D01*
X220549447Y-49850486D02*
X220552974Y-49866299D01*
X220390309Y-48659481D02*
X220367273Y-48696074D01*
X220367273Y-48696074D02*
X220346640Y-48732119D01*
X220346640Y-48732119D02*
X220328327Y-48767623D01*
X220328327Y-48767623D02*
X220312250Y-48802591D01*
X220312250Y-48802591D02*
X220298326Y-48837031D01*
X220298326Y-48837031D02*
X220286470Y-48870950D01*
X220286470Y-48870950D02*
X220276600Y-48904353D01*
X220276600Y-48904353D02*
X220268630Y-48937247D01*
X220268630Y-48937247D02*
X220262479Y-48969640D01*
X220262479Y-48969640D02*
X220258062Y-49001537D01*
X220258062Y-49001537D02*
X220255295Y-49032945D01*
X220255295Y-49032945D02*
X220254094Y-49063871D01*
X220254094Y-49063871D02*
X220254377Y-49094321D01*
X220254377Y-49094321D02*
X220256059Y-49124302D01*
X220256059Y-49124302D02*
X220259057Y-49153821D01*
X220259057Y-49153821D02*
X220263286Y-49182884D01*
X220263286Y-49182884D02*
X220268664Y-49211497D01*
X220268664Y-49211497D02*
X220275107Y-49239668D01*
X220275107Y-49239668D02*
X220282531Y-49267403D01*
X220282531Y-49267403D02*
X220290852Y-49294708D01*
X220290852Y-49294708D02*
X220299987Y-49321591D01*
X220299987Y-49321591D02*
X220309852Y-49348057D01*
X220309852Y-49348057D02*
X220320363Y-49374113D01*
X220320363Y-49374113D02*
X220331437Y-49399767D01*
X220331437Y-49399767D02*
X220342990Y-49425023D01*
X220342990Y-49425023D02*
X220354938Y-49449890D01*
X220354938Y-49449890D02*
X220367197Y-49474374D01*
X220367197Y-49474374D02*
X220379685Y-49498481D01*
X220379685Y-49498481D02*
X220392317Y-49522217D01*
X220392317Y-49522217D02*
X220405010Y-49545590D01*
X220405010Y-49545590D02*
X220417680Y-49568607D01*
X220417680Y-49568607D02*
X220430243Y-49591273D01*
X221419538Y-47505298D02*
X221381052Y-47544080D01*
X221381052Y-47544080D02*
X221342725Y-47582725D01*
X221342725Y-47582725D02*
X221304582Y-47621227D01*
X221304582Y-47621227D02*
X221266647Y-47659583D01*
X221266647Y-47659583D02*
X221228946Y-47697790D01*
X221228946Y-47697790D02*
X221191503Y-47735844D01*
X221191503Y-47735844D02*
X221154344Y-47773741D01*
X221154344Y-47773741D02*
X221117492Y-47811478D01*
X221117492Y-47811478D02*
X221080974Y-47849050D01*
X221080974Y-47849050D02*
X221044814Y-47886455D01*
X221044814Y-47886455D02*
X221009036Y-47923688D01*
X221009036Y-47923688D02*
X220973667Y-47960746D01*
X220973667Y-47960746D02*
X220938730Y-47997626D01*
X220938730Y-47997626D02*
X220904251Y-48034322D01*
X220904251Y-48034322D02*
X220870255Y-48070833D01*
X220870255Y-48070833D02*
X220836766Y-48107154D01*
X220836766Y-48107154D02*
X220803810Y-48143281D01*
X220803810Y-48143281D02*
X220771411Y-48179212D01*
X220771411Y-48179212D02*
X220739594Y-48214941D01*
X220739594Y-48214941D02*
X220708385Y-48250466D01*
X220708385Y-48250466D02*
X220677808Y-48285783D01*
X220677808Y-48285783D02*
X220647888Y-48320888D01*
X220647888Y-48320888D02*
X220618649Y-48355777D01*
X220618649Y-48355777D02*
X220590118Y-48390448D01*
X220590118Y-48390448D02*
X220562319Y-48424895D01*
X220562319Y-48424895D02*
X220535276Y-48459116D01*
X220535276Y-48459116D02*
X220509016Y-48493107D01*
X220509016Y-48493107D02*
X220483561Y-48526864D01*
X220483561Y-48526864D02*
X220458938Y-48560384D01*
X220458938Y-48560384D02*
X220435172Y-48593662D01*
X220435172Y-48593662D02*
X220412287Y-48626696D01*
X220412287Y-48626696D02*
X220390309Y-48659481D01*
X223028099Y-45165288D02*
X223024376Y-45234375D01*
X223024376Y-45234375D02*
X223015943Y-45304128D01*
X223015943Y-45304128D02*
X223002969Y-45374505D01*
X223002969Y-45374505D02*
X222985626Y-45445466D01*
X222985626Y-45445466D02*
X222964084Y-45516971D01*
X222964084Y-45516971D02*
X222938514Y-45588979D01*
X222938514Y-45588979D02*
X222909088Y-45661449D01*
X222909088Y-45661449D02*
X222875975Y-45734342D01*
X222875975Y-45734342D02*
X222839346Y-45807617D01*
X222839346Y-45807617D02*
X222799373Y-45881232D01*
X222799373Y-45881232D02*
X222756226Y-45955149D01*
X222756226Y-45955149D02*
X222710077Y-46029326D01*
X222710077Y-46029326D02*
X222661095Y-46103724D01*
X222661095Y-46103724D02*
X222609452Y-46178300D01*
X222609452Y-46178300D02*
X222555319Y-46253016D01*
X222555319Y-46253016D02*
X222498866Y-46327831D01*
X222498866Y-46327831D02*
X222440264Y-46402704D01*
X222440264Y-46402704D02*
X222379684Y-46477595D01*
X222379684Y-46477595D02*
X222317297Y-46552463D01*
X222317297Y-46552463D02*
X222253273Y-46627269D01*
X222253273Y-46627269D02*
X222187784Y-46701970D01*
X222187784Y-46701970D02*
X222121001Y-46776528D01*
X222121001Y-46776528D02*
X222053093Y-46850902D01*
X222053093Y-46850902D02*
X221984233Y-46925051D01*
X221984233Y-46925051D02*
X221914590Y-46998935D01*
X221914590Y-46998935D02*
X221844336Y-47072513D01*
X221844336Y-47072513D02*
X221773641Y-47145744D01*
X221773641Y-47145744D02*
X221702677Y-47218590D01*
X221702677Y-47218590D02*
X221631613Y-47291008D01*
X221631613Y-47291008D02*
X221560622Y-47362959D01*
X221560622Y-47362959D02*
X221489873Y-47434403D01*
X221489873Y-47434403D02*
X221419538Y-47505298D01*
X223028099Y-45165288D02*
G75*
G02*
X223171891Y-45026893I140450J-2030D01*
G01*
X223171891Y-45026893D02*
G75*
G02*
X223310286Y-45170650I-2685J-141079D01*
G01*
X221619880Y-47704053D02*
X221693730Y-47629612D01*
X221693730Y-47629612D02*
X221768015Y-47554582D01*
X221768015Y-47554582D02*
X221842556Y-47478990D01*
X221842556Y-47478990D02*
X221917172Y-47402867D01*
X221917172Y-47402867D02*
X221991685Y-47326238D01*
X221991685Y-47326238D02*
X222065917Y-47249134D01*
X222065917Y-47249134D02*
X222139687Y-47171583D01*
X222139687Y-47171583D02*
X222212817Y-47093613D01*
X222212817Y-47093613D02*
X222285127Y-47015252D01*
X222285127Y-47015252D02*
X222356439Y-46936530D01*
X222356439Y-46936530D02*
X222426574Y-46857474D01*
X222426574Y-46857474D02*
X222495353Y-46778113D01*
X222495353Y-46778113D02*
X222562595Y-46698475D01*
X222562595Y-46698475D02*
X222628123Y-46618589D01*
X222628123Y-46618589D02*
X222691758Y-46538484D01*
X222691758Y-46538484D02*
X222753320Y-46458187D01*
X222753320Y-46458187D02*
X222812629Y-46377727D01*
X222812629Y-46377727D02*
X222869508Y-46297133D01*
X222869508Y-46297133D02*
X222923777Y-46216434D01*
X222923777Y-46216434D02*
X222975257Y-46135656D01*
X222975257Y-46135656D02*
X223023769Y-46054830D01*
X223023769Y-46054830D02*
X223069133Y-45973984D01*
X223069133Y-45973984D02*
X223111171Y-45893145D01*
X223111171Y-45893145D02*
X223149704Y-45812343D01*
X223149704Y-45812343D02*
X223184552Y-45731605D01*
X223184552Y-45731605D02*
X223215537Y-45650961D01*
X223215537Y-45650961D02*
X223242480Y-45570439D01*
X223242480Y-45570439D02*
X223265200Y-45490067D01*
X223265200Y-45490067D02*
X223283520Y-45409873D01*
X223283520Y-45409873D02*
X223297261Y-45329887D01*
X223297261Y-45329887D02*
X223306242Y-45250136D01*
X223306242Y-45250136D02*
X223310286Y-45170650D01*
X220626070Y-48814668D02*
X220646607Y-48784052D01*
X220646607Y-48784052D02*
X220668084Y-48753109D01*
X220668084Y-48753109D02*
X220690475Y-48721846D01*
X220690475Y-48721846D02*
X220713753Y-48690268D01*
X220713753Y-48690268D02*
X220737893Y-48658383D01*
X220737893Y-48658383D02*
X220762869Y-48626195D01*
X220762869Y-48626195D02*
X220788653Y-48593712D01*
X220788653Y-48593712D02*
X220815221Y-48560941D01*
X220815221Y-48560941D02*
X220842546Y-48527886D01*
X220842546Y-48527886D02*
X220870601Y-48494555D01*
X220870601Y-48494555D02*
X220899361Y-48460953D01*
X220899361Y-48460953D02*
X220928800Y-48427088D01*
X220928800Y-48427088D02*
X220958892Y-48392965D01*
X220958892Y-48392965D02*
X220989610Y-48358590D01*
X220989610Y-48358590D02*
X221020928Y-48323971D01*
X221020928Y-48323971D02*
X221052821Y-48289113D01*
X221052821Y-48289113D02*
X221085261Y-48254022D01*
X221085261Y-48254022D02*
X221118224Y-48218705D01*
X221118224Y-48218705D02*
X221151682Y-48183168D01*
X221151682Y-48183168D02*
X221185610Y-48147418D01*
X221185610Y-48147418D02*
X221219982Y-48111461D01*
X221219982Y-48111461D02*
X221254771Y-48075303D01*
X221254771Y-48075303D02*
X221289952Y-48038950D01*
X221289952Y-48038950D02*
X221325497Y-48002408D01*
X221325497Y-48002408D02*
X221361382Y-47965685D01*
X221361382Y-47965685D02*
X221397580Y-47928786D01*
X221397580Y-47928786D02*
X221434065Y-47891717D01*
X221434065Y-47891717D02*
X221470811Y-47854485D01*
X221470811Y-47854485D02*
X221507791Y-47817097D01*
X221507791Y-47817097D02*
X221544980Y-47779557D01*
X221544980Y-47779557D02*
X221582352Y-47741874D01*
X221582352Y-47741874D02*
X221619880Y-47704053D01*
X220677082Y-49454325D02*
X220665855Y-49434072D01*
X220665855Y-49434072D02*
X220654820Y-49414064D01*
X220654820Y-49414064D02*
X220644020Y-49394279D01*
X220644020Y-49394279D02*
X220633497Y-49374693D01*
X220633497Y-49374693D02*
X220623294Y-49355284D01*
X220623294Y-49355284D02*
X220613455Y-49336028D01*
X220613455Y-49336028D02*
X220604022Y-49316904D01*
X220604022Y-49316904D02*
X220595039Y-49297888D01*
X220595039Y-49297888D02*
X220586548Y-49278957D01*
X220586548Y-49278957D02*
X220578593Y-49260089D01*
X220578593Y-49260089D02*
X220571216Y-49241261D01*
X220571216Y-49241261D02*
X220564460Y-49222450D01*
X220564460Y-49222450D02*
X220558369Y-49203632D01*
X220558369Y-49203632D02*
X220552985Y-49184787D01*
X220552985Y-49184787D02*
X220548352Y-49165890D01*
X220548352Y-49165890D02*
X220544512Y-49146918D01*
X220544512Y-49146918D02*
X220541508Y-49127850D01*
X220541508Y-49127850D02*
X220539384Y-49108662D01*
X220539384Y-49108662D02*
X220538183Y-49089331D01*
X220538183Y-49089331D02*
X220537947Y-49069834D01*
X220537947Y-49069834D02*
X220538719Y-49050149D01*
X220538719Y-49050149D02*
X220540543Y-49030254D01*
X220540543Y-49030254D02*
X220543461Y-49010124D01*
X220543461Y-49010124D02*
X220547517Y-48989737D01*
X220547517Y-48989737D02*
X220552753Y-48969072D01*
X220552753Y-48969072D02*
X220559212Y-48948103D01*
X220559212Y-48948103D02*
X220566938Y-48926810D01*
X220566938Y-48926810D02*
X220575973Y-48905169D01*
X220575973Y-48905169D02*
X220586361Y-48883156D01*
X220586361Y-48883156D02*
X220598145Y-48860751D01*
X220598145Y-48860751D02*
X220611366Y-48837929D01*
X220611366Y-48837929D02*
X220626070Y-48814668D01*
X220677081Y-49454325D02*
G75*
G02*
X220801894Y-49713052I-1484284J-875504D01*
G01*
X221693470Y-49198243D02*
X220801894Y-49713052D01*
X222386890Y-50398605D02*
X221693470Y-49198243D01*
X222198718Y-50458824D02*
G75*
G02*
X222386890Y-50398605I1562752J-4559149D01*
G01*
X222185701Y-50463269D02*
G75*
G02*
X222198718Y-50458824I616989J-1785614D01*
G01*
X222061594Y-50507684D02*
G75*
G02*
X222185701Y-50463269I1696918J-4546064D01*
G01*
X222026985Y-50520737D02*
G75*
G02*
X222061593Y-50507684I1642443J-4302285D01*
G01*
X222292381Y-50725031D02*
G75*
G02*
X222421074Y-50683650I1493086J-4422654D01*
G01*
X226025369Y-58986028D02*
G75*
G02*
X223752175Y-59597109I-2278310J3941578D01*
G01*
X223752175Y-59597109D02*
G75*
G02*
X219802969Y-57318588I5970J4572053D01*
G01*
X222019365Y-50827053D02*
G75*
G02*
X222104773Y-50793328I1755326J-4320226D01*
G01*
X220564722Y-51398871D02*
G75*
G02*
X220643180Y-51331667I3344028J-3824599D01*
G01*
X220532160Y-51427199D02*
G75*
G02*
X220564722Y-51398871I2745739J-3123183D01*
G01*
X220457266Y-51495391D02*
G75*
G02*
X220532161Y-51427199I3337281J-3590088D01*
G01*
X220442308Y-51509220D02*
G75*
G02*
X220457266Y-51495391I1891094J-2030465D01*
G01*
X222428129Y-50681462D02*
G75*
G02*
X223743285Y-50485847I1317554J-4339328D01*
G01*
X223743284Y-50485847D02*
G75*
G02*
X227692844Y-52763733I-5311J-4572165D01*
G01*
X221618857Y-51014555D02*
G75*
G02*
X221745257Y-50950138I2162945J-4087937D01*
G01*
X221745258Y-50950138D02*
G75*
G02*
X221781241Y-50933134I2878315J-6044465D01*
G01*
X220408089Y-51540829D02*
G75*
G02*
X220442308Y-51509220I2814332J-3012439D01*
G01*
X219715057Y-50340538D02*
X220408089Y-51540829D01*
X225783046Y-58283999D02*
G75*
G02*
X225731364Y-58476828I-122374J-70542D01*
G01*
X225590289Y-58232389D02*
G75*
G02*
X225783046Y-58284000I70565J-122213D01*
G01*
X225590288Y-58232388D02*
G75*
G02*
X222794524Y-58600547I-1838895J3164931D01*
G01*
X222794524Y-58600547D02*
G75*
G02*
X220557243Y-56884001I937603J3538303D01*
G01*
X220364486Y-56832390D02*
G75*
G02*
X220557243Y-56884001I70565J-122213D01*
G01*
X220312839Y-57025113D02*
G75*
G02*
X220364485Y-56832390I122154J70547D01*
G01*
X222721464Y-58873138D02*
G75*
G02*
X220312839Y-57025112I1009256J3809068D01*
G01*
X223754503Y-59009982D02*
G75*
G02*
X222721464Y-58873139I2670J3987836D01*
G01*
X225731364Y-58476828D02*
G75*
G02*
X223754503Y-59009981I-1980097J3410393D01*
G01*
X227692843Y-52763733D02*
G75*
G02*
X228147786Y-56220073I-3912173J-2273053D01*
G01*
X228147787Y-56220074D02*
G75*
G02*
X226025369Y-58986028I-4374065J1159098D01*
G01*
X221781241Y-50933134D02*
G75*
G02*
X221882382Y-50885897I2071927J-4304409D01*
G01*
X221882383Y-50885897D02*
G75*
G02*
X221943907Y-50859262I1743939J-3944008D01*
G01*
X222428130Y-50681463D02*
G75*
G02*
X222421074Y-50683650I-163354J514473D01*
G01*
X222156032Y-50773502D02*
G75*
G02*
X222263841Y-50734943I1643968J-4426498D01*
G01*
D11*
X161640251Y-54941784D02*
G75*
G02*
X161572210Y-54912501I4594J104364D01*
G01*
X161220811Y-54585216D02*
X161572210Y-54912501D01*
X161220811Y-54585217D02*
G75*
G02*
X161185498Y-54500812I75921J81353D01*
G01*
X161345695Y-49964051D02*
X161185498Y-54500812D01*
X161345695Y-49964052D02*
G75*
G02*
X161421487Y-49863282I110062J-3893D01*
G01*
X162003709Y-49671649D02*
X161421487Y-49863282D01*
X162003709Y-49671649D02*
G75*
G02*
X162038160Y-49666051I33537J-97584D01*
G01*
X162038160Y-49666051D02*
G75*
G02*
X162045050Y-49666481I1418J-32647D01*
G01*
X165362677Y-49666481D02*
G75*
G02*
X162045050Y-49666481I-1658814J25634834D01*
G01*
X165362677Y-49666481D02*
G75*
G02*
X165404018Y-49671649I8388J-100842D01*
G01*
X165986239Y-49863282D02*
X165404018Y-49671649D01*
X165986239Y-49863282D02*
G75*
G02*
X166062031Y-49964051I-34269J-104663D01*
G01*
X166222228Y-54500812D02*
X166062031Y-49964051D01*
X166222228Y-54500811D02*
G75*
G02*
X166186916Y-54585216I-111234J-3053D01*
G01*
X165835516Y-54912501D02*
X166186916Y-54585216D01*
X165835516Y-54912501D02*
G75*
G02*
X165767475Y-54941784I-72634J75080D01*
G01*
X165399711Y-54965900D02*
X165767475Y-54941784D01*
X165399712Y-54965900D02*
G75*
G02*
X162008015Y-54965900I-1695849J25559079D01*
G01*
X161640251Y-54941784D02*
X162008015Y-54965900D01*
X166609155Y-53777772D02*
X167148259Y-51852879D01*
X166483356Y-50746680D02*
X166609155Y-53777772D01*
X166579172Y-50513060D02*
X166483356Y-50746680D01*
X167148259Y-51852879D02*
X166579172Y-50513060D01*
X125562349Y-52630986D02*
G75*
G02*
X126032605Y-52115944I1337343J-748849D01*
G01*
X129078016Y-55047720D02*
X125562350Y-52630986D01*
X129495249Y-54558032D02*
G75*
G02*
X129078016Y-55047720I-859451J309692D01*
G01*
X126032605Y-52115944D02*
X129495249Y-54558032D01*
X132935931Y-56556835D02*
G75*
G02*
X134520459Y-56674236I717417J-1068885D01*
G01*
X1222265255Y-1294558014D02*
G75*
G02*
X1222469738Y-1294343584I-2147483648J-2147483648D01*
G01*
X133906371Y-57246122D02*
G75*
G02*
X133948574Y-57306411I-63446J-89328D01*
G01*
X133948574Y-57306411D02*
G75*
G02*
X133829718Y-58079837I-879545J-260682D01*
G01*
X133829718Y-58079837D02*
G75*
G02*
X133222520Y-58356736I-626534J569698D01*
G01*
X133222519Y-58356736D02*
G75*
G02*
X133162230Y-58336927I1844J107260D01*
G01*
X132889506Y-58280219D02*
G75*
G02*
X132149965Y-57630035I1385596181J1576765906D01*
G01*
X132455986Y-58738280D02*
G75*
G02*
X132149965Y-57630035I887175J841350D01*
G01*
X132634431Y-58879691D02*
G75*
G02*
X132455986Y-58738281I595232J934414D01*
G01*
X132689714Y-58913442D02*
G75*
G02*
X132634431Y-58879691I6966233J11472563D01*
G01*
X134386962Y-58605644D02*
G75*
G02*
X132689714Y-58913442I-1052380J969645D01*
G01*
X134856357Y-57518285D02*
G75*
G02*
X134386962Y-58605645I-1557932J27537D01*
G01*
X134520460Y-56674236D02*
G75*
G02*
X134856356Y-57518285I-846651J-825793D01*
G01*
X134459147Y-56342323D02*
X153241162Y-53848612D01*
X134459147Y-56342322D02*
G75*
G02*
X134660147Y-56505857I-764680J-1145160D01*
G01*
X134660847Y-56504996D02*
X134660147Y-56505857D01*
X134814961Y-56626597D02*
G75*
G02*
X134660847Y-56504996I890744090J1129065658D01*
G01*
X149170728Y-54878480D02*
X134814961Y-56626597D01*
X149170728Y-54878481D02*
G75*
G02*
X149183647Y-54877619I15105J-129247D01*
G01*
X149183647Y-54877618D02*
G75*
G02*
X149292168Y-54969775I300J-109621D01*
G01*
X149292168Y-54969775D02*
G75*
G02*
X149341260Y-55363808I-4815838J-800081D01*
G01*
X149485092Y-55567499D02*
G75*
G02*
X149341260Y-55363808I50129J188025D01*
G01*
X152580511Y-56017838D02*
G75*
G02*
X149485093Y-55567499I14026863J107277552D01*
G01*
X152580511Y-56017838D02*
G75*
G02*
X152507303Y-55567069I1832152J528885D01*
G01*
X152507303Y-55567069D02*
G75*
G02*
X152602904Y-55457687I110420J-39D01*
G01*
X152893907Y-55418014D02*
X152602904Y-55457687D01*
X152893907Y-55418015D02*
G75*
G02*
X153241162Y-53848612I2709522J223596D01*
G01*
X137183518Y-48652331D02*
X136745130Y-48147033D01*
X153747268Y-53205294D02*
X137183518Y-48652331D01*
X153747268Y-53205294D02*
G75*
G02*
X154657904Y-52602564I2022723J-2066751D01*
G01*
X153830866Y-50255593D02*
X154657904Y-52602564D01*
X149234462Y-49272018D02*
X153830866Y-50255593D01*
X135079426Y-46226984D02*
X149234462Y-49272018D01*
X136744376Y-48146171D02*
X135079426Y-46226984D01*
X136745130Y-48147033D02*
X136744376Y-48146171D01*
X136372898Y-48053046D02*
X136247314Y-48032645D01*
X134869329Y-46316880D02*
X136372898Y-48053046D01*
X134716830Y-46293302D02*
X134869329Y-46316880D01*
X136247314Y-48032645D02*
X134716830Y-46293302D01*
X134929403Y-45969248D02*
X135010524Y-45745101D01*
X149176003Y-49030108D02*
X134929403Y-45969248D01*
X149317360Y-48511675D02*
X149176003Y-49030108D01*
X139671846Y-46646478D02*
X149317360Y-48511675D01*
X139670554Y-46646209D02*
G75*
G02*
X139671846Y-46646478I-1370674J-6581751D01*
G01*
X135010524Y-45745101D02*
X139670554Y-46646209D01*
X134532087Y-42851382D02*
G75*
G02*
X135203450Y-43702590I-761812871J-601545990D01*
G01*
X134519597Y-43882166D02*
G75*
G02*
X134532086Y-42851382I925146J504259D01*
G01*
X135156941Y-44362757D02*
G75*
G02*
X134519598Y-43882166I251618J996594D01*
G01*
X136181857Y-44209450D02*
G75*
G02*
X135156941Y-44362757I-697701J1161768D01*
G01*
X136834703Y-43389518D02*
G75*
G02*
X136181857Y-44209450I-1323971J384300D01*
G01*
X136742546Y-42608342D02*
G75*
G02*
X136834702Y-43389517I-891631J-501210D01*
G01*
X135512863Y-42130551D02*
G75*
G02*
X136742546Y-42608342I284113J-1090085D01*
G01*
X136224059Y-43038979D02*
X135512862Y-42130550D01*
X136224058Y-43038979D02*
G75*
G02*
X136247313Y-43111326I-87083J-67902D01*
G01*
X136247313Y-43111326D02*
G75*
G02*
X135934671Y-43686226I-776147J49624D01*
G01*
X135934671Y-43686226D02*
G75*
G02*
X135239623Y-43732304I-388984J602351D01*
G01*
X135239623Y-43732304D02*
G75*
G02*
X135203450Y-43702590I60513J110543D01*
G01*
X131883239Y-38939799D02*
G75*
G02*
X128723225Y-34949033I1133220575J900566061D01*
G01*
X132202772Y-38913908D02*
G75*
G02*
X131883239Y-38939800I-188310J339304D01*
G01*
X132343374Y-38653696D02*
G75*
G02*
X132202771Y-38913908I-401405J48803D01*
G01*
X129209845Y-34616582D02*
X132343374Y-38653695D01*
X128723226Y-34949033D02*
G75*
G02*
X129209845Y-34616582I621479J-387314D01*
G01*
X1215141497Y-1302065428D02*
G75*
G02*
X1215263228Y-1301936532I-2147483648J-2147483648D01*
G01*
X135812370Y-43502775D02*
G75*
G02*
X135360201Y-43544547I-265932J410455D01*
G01*
X136022521Y-43139748D02*
G75*
G02*
X135812370Y-43502775I-526705J62562D01*
G01*
X132863261Y-39104464D02*
X136022521Y-43139748D01*
X132863261Y-39104464D02*
G75*
G02*
X132194266Y-39540215I-760430J436045D01*
G01*
X132194267Y-39540215D02*
G75*
G02*
X134578488Y-42553974I-860213703J-682975534D01*
G01*
X134578488Y-42553974D02*
G75*
G02*
X134579026Y-42554082I-1138900J-5694967D01*
G01*
X134579026Y-42554082D02*
G75*
G02*
X134581018Y-42557150I-126714J-84433D01*
G01*
X137429196Y-43563118D02*
G75*
G02*
X137552143Y-44084565I-521948J-398283D01*
G01*
X137403520Y-43527160D02*
X137429197Y-43563118D01*
X137403520Y-43527159D02*
G75*
G02*
X137389363Y-43699145I-1185117J10978D01*
G01*
X137389362Y-43699145D02*
G75*
G02*
X136613355Y-44761096I-1591220J348260D01*
G01*
X136613356Y-44761096D02*
G75*
G02*
X135443261Y-44964303I-835353J1339686D01*
G01*
X136812309Y-44963063D02*
G75*
G02*
X135443261Y-44964303I-685348J909879D01*
G01*
X137552143Y-44084566D02*
G75*
G02*
X136812309Y-44963065I-1437150J459529D01*
G01*
X138381712Y-44896800D02*
G75*
G02*
X138265278Y-45406190I-1245900J16779D01*
G01*
X138265278Y-45406190D02*
G75*
G02*
X137619753Y-46025285I-1206401J611815D01*
G01*
X139439033Y-46377115D02*
X137619753Y-46025285D01*
X138381712Y-44896800D02*
X139439033Y-46377115D01*
X149391053Y-49076293D02*
X149724527Y-47854792D01*
X153937879Y-50053193D02*
X149391053Y-49076293D01*
X154425037Y-50158861D02*
X153937879Y-50053193D01*
X154425037Y-50158861D02*
G75*
G02*
X153601121Y-49022679I3042363J3073034D01*
G01*
X153601121Y-49022679D02*
G75*
G02*
X153149813Y-47570571I4860240J2306723D01*
G01*
X149724527Y-47854792D02*
X153149813Y-47570571D01*
X153154120Y-46618433D02*
X153162948Y-46620317D01*
X153159233Y-46639480D02*
X153154120Y-46618433D01*
X153159234Y-46639480D02*
G75*
G02*
X153162948Y-46620317I1701144J-319773D01*
G01*
X159263135Y-35433500D02*
G75*
G02*
X158734313Y-46877246I-518639131J18232521D01*
G01*
X158734313Y-46877246D02*
G75*
G02*
X158730868Y-46884513I-91253J38812D01*
G01*
X158730868Y-46884513D02*
G75*
G02*
X158680107Y-47517818I-2894481J-86685D01*
G01*
X158823885Y-47548609D02*
X158680107Y-47517818D01*
X158823886Y-47548608D02*
G75*
G02*
X158839927Y-47567180I-66282J-73466D01*
G01*
X159625032Y-32295179D02*
X158839927Y-47567180D01*
X159625032Y-32295180D02*
G75*
G02*
X159206399Y-31743480I17533421J13739142D01*
G01*
X159224378Y-32347987D02*
G75*
G02*
X159206399Y-31743480I49209974J1766110D01*
G01*
X159224378Y-32347986D02*
G75*
G02*
X159263135Y-35433500I-61909128J-2320645D01*
G01*
X159363043Y-29184958D02*
G75*
G02*
X159473286Y-28548046I11129842J-1598465D01*
G01*
X159353892Y-29246970D02*
X159363043Y-29184958D01*
X160639452Y-32242050D02*
G75*
G02*
X159353892Y-29246970I7965249J5192310D01*
G01*
X161587713Y-32900063D02*
G75*
G02*
X160639451Y-32242050I127134J1195489D01*
G01*
X162232807Y-32985330D02*
G75*
G02*
X161587713Y-32900063I347399J5111208D01*
G01*
X165176642Y-32985329D02*
G75*
G02*
X162232808Y-32985329I-1471917J18399209D01*
G01*
X165818291Y-32900493D02*
G75*
G02*
X165176642Y-32985329I-994205J5050661D01*
G01*
X166768276Y-32242049D02*
G75*
G02*
X165818291Y-32900493I-1076558J538699D01*
G01*
X168053835Y-29246970D02*
G75*
G02*
X166768276Y-32242050I-9250809J2197230D01*
G01*
X168044684Y-29184958D02*
X168053835Y-29246970D01*
X167935303Y-28548907D02*
G75*
G02*
X168044684Y-29184958I-11627185J-2326960D01*
G01*
X166307495Y-22529894D02*
G75*
G02*
X167935302Y-28548907I-57954685J-18903137D01*
G01*
X164942375Y-20593751D02*
X165892629Y-21436959D01*
X165892629Y-21436959D02*
X166307494Y-22529895D01*
X163703863Y-20558439D02*
G75*
G02*
X164942375Y-20593751I-239661J-30142583D01*
G01*
X162465351Y-20593751D02*
G75*
G02*
X163703863Y-20558439I1478174J-30107343D01*
G01*
X161100232Y-22530325D02*
X161551013Y-21360482D01*
X161551013Y-21360482D02*
X162465352Y-20593751D01*
X159473286Y-28548046D02*
G75*
G02*
X161100232Y-22530325I59369921J-12822417D01*
G01*
X168673413Y-46877246D02*
G75*
G02*
X168144591Y-35433069I518043674J29672506D01*
G01*
X168144592Y-35433069D02*
G75*
G02*
X168183349Y-32347986I61937563J764675D01*
G01*
X168201328Y-31743426D02*
G75*
G02*
X168183349Y-32347986I-49234620J1161644D01*
G01*
X168201328Y-31743425D02*
G75*
G02*
X167782695Y-32294910I-17697294J12999414D01*
G01*
X168567800Y-47567180D02*
X167782695Y-32294910D01*
X168567800Y-47567180D02*
G75*
G02*
X168583841Y-47548609I82322J-54894D01*
G01*
X168727351Y-47517872D02*
X168583841Y-47548609D01*
X168727351Y-47517873D02*
G75*
G02*
X168676320Y-46883975I2858419J549114D01*
G01*
X168676320Y-46883975D02*
G75*
G02*
X168673413Y-46877246I95463J45233D01*
G01*
X174253607Y-46618433D02*
X174248978Y-46637489D01*
X174245209Y-46620209D02*
X174253607Y-46618433D01*
X174245210Y-46620210D02*
G75*
G02*
X174248978Y-46637489I-727652J-167729D01*
G01*
X177683200Y-47854792D02*
X178017697Y-49080061D01*
X174257913Y-47570571D02*
X177683200Y-47854792D01*
X174257913Y-47570571D02*
G75*
G02*
X173806606Y-49022679I-5311551J854616D01*
G01*
X173806606Y-49022679D02*
G75*
G02*
X172983282Y-50158215I-3865204J1936234D01*
G01*
X173469848Y-50053193D02*
X172983282Y-50158215D01*
X178017697Y-49080061D02*
X173469848Y-50053193D01*
X178090367Y-48511674D02*
X187736042Y-46646424D01*
X178232746Y-49033876D02*
X178090367Y-48511674D01*
X192478324Y-45969302D02*
X178232746Y-49033876D01*
X192397202Y-45745101D02*
X192478324Y-45969302D01*
X187737657Y-46646155D02*
X192397202Y-45745101D01*
X187736042Y-46646424D02*
G75*
G02*
X187737657Y-46646155I3574J-16464D01*
G01*
X187968694Y-46377115D02*
X189026015Y-44896800D01*
X189787973Y-46025285D02*
X187968694Y-46377115D01*
X189787973Y-46025285D02*
G75*
G02*
X189142448Y-45406190I560876J1230910D01*
G01*
X189142448Y-45406189D02*
G75*
G02*
X189026015Y-44896800I1129467J526168D01*
G01*
X190665179Y-42608772D02*
G75*
G02*
X191894864Y-42130550I945908J-612178D01*
G01*
X190573025Y-43389517D02*
G75*
G02*
X190665181Y-42608773I982452J279846D01*
G01*
X191225009Y-44209019D02*
G75*
G02*
X190573024Y-43389517I671704J1203504D01*
G01*
X192250787Y-44362757D02*
G75*
G02*
X191225009Y-44209020I-326855J1318145D01*
G01*
X192887268Y-43883458D02*
G75*
G02*
X192250786Y-44362757I-887342J516083D01*
G01*
X192875640Y-42851383D02*
G75*
G02*
X192887267Y-43883458I-913418J-526393D01*
G01*
X192204277Y-43702591D02*
G75*
G02*
X192875640Y-42851383I762443714J-600662869D01*
G01*
X192204277Y-43702590D02*
G75*
G02*
X192168103Y-43732304I-96686J80828D01*
G01*
X192168104Y-43732305D02*
G75*
G02*
X191473055Y-43686226I-306064J648430D01*
G01*
X191473055Y-43686226D02*
G75*
G02*
X191160413Y-43111326I463505J624524D01*
G01*
X191160413Y-43111326D02*
G75*
G02*
X191183667Y-43038979I110338J4445D01*
G01*
X191894864Y-42130550D02*
X191183667Y-43038979D01*
X195064352Y-38653695D02*
X198197882Y-34616582D01*
X195204955Y-38913908D02*
G75*
G02*
X195064352Y-38653695I260802J309015D01*
G01*
X195524488Y-38939747D02*
G75*
G02*
X195204955Y-38913908I-131340J364458D01*
G01*
X198684502Y-34949034D02*
G75*
G02*
X195524488Y-38939746I-1132251865J893318138D01*
G01*
X198197882Y-34616581D02*
G75*
G02*
X198684502Y-34949033I-136880J-722722D01*
G01*
X192829078Y-42554028D02*
G75*
G02*
X192828701Y-42554082I-547643J3833948D01*
G01*
X192829077Y-42554028D02*
G75*
G02*
X195213675Y-39540000I843337863J-664770421D01*
G01*
X195213675Y-39540000D02*
G75*
G02*
X194544681Y-39104195I94473J876405D01*
G01*
X191385205Y-43139748D02*
X194544681Y-39104195D01*
X191595356Y-43502775D02*
G75*
G02*
X191385205Y-43139748I323804J429786D01*
G01*
X192047526Y-43544547D02*
G75*
G02*
X191595356Y-43502775I-185813J456824D01*
G01*
X1189512596Y-1329686748D02*
G75*
G02*
X1189921693Y-1329238143I-2147483648J-2147483648D01*
G01*
X192828700Y-42554082D02*
G75*
G02*
X192827301Y-42556235I-38348283J24924696D01*
G01*
X189855584Y-44084566D02*
G75*
G02*
X189978530Y-43563118I644896J123165D01*
G01*
X190595417Y-44963064D02*
G75*
G02*
X189855583Y-44084565I697316J1338027D01*
G01*
X191965274Y-44963657D02*
G75*
G02*
X190595417Y-44963065I-684536J908675D01*
G01*
X191965274Y-44963656D02*
G75*
G02*
X190794372Y-44761096I-336354J1541184D01*
G01*
X190794372Y-44761096D02*
G75*
G02*
X190018364Y-43699145I815213J1410212D01*
G01*
X190018364Y-43699146D02*
G75*
G02*
X190004207Y-43527160I1170970J182966D01*
G01*
X189978530Y-43563118D02*
X190004207Y-43527160D01*
X192690897Y-46293302D02*
X191160413Y-48032645D01*
X192542758Y-46316234D02*
X192690897Y-46293302D01*
X191036174Y-48052831D02*
X192542758Y-46316234D01*
X191160413Y-48032645D02*
X191036174Y-48052831D01*
X190662597Y-48147033D02*
X190224208Y-48652331D01*
X190663350Y-48146171D02*
X190662597Y-48147033D01*
X192328300Y-46226984D02*
X190663350Y-48146171D01*
X178184246Y-49265666D02*
X192328300Y-46226984D01*
X178184245Y-49265666D02*
G75*
G02*
X178182738Y-49266850I-18603J22126D01*
G01*
X178182738Y-49266850D02*
G75*
G02*
X178180208Y-49266527I3871J40392D01*
G01*
X173576861Y-50255539D02*
X178180208Y-49266527D01*
X172749823Y-52602564D02*
X173576861Y-50255539D01*
X172749823Y-52602565D02*
G75*
G02*
X173659866Y-53205456I-1120764J-2680037D01*
G01*
X190224208Y-48652331D02*
X173659866Y-53205456D01*
X192747580Y-56505858D02*
G75*
G02*
X192948687Y-56342323I964175J-980276D01*
G01*
X174166080Y-53848558D02*
X192948687Y-56342323D01*
X174166079Y-53848558D02*
G75*
G02*
X174514357Y-55418068I-2356222J-1346248D01*
G01*
X174804822Y-55457687D02*
X174514357Y-55418068D01*
X174804822Y-55457688D02*
G75*
G02*
X174900423Y-55567069I-14818J-109420D01*
G01*
X174900423Y-55567069D02*
G75*
G02*
X174827538Y-56017784I-1916861J78726D01*
G01*
X177925217Y-55566638D02*
G75*
G02*
X174827538Y-56017784I-16806804J104539360D01*
G01*
X178066465Y-55363378D02*
G75*
G02*
X177925217Y-55566638I-193097J-16521D01*
G01*
X178066467Y-55363377D02*
G75*
G02*
X178115559Y-54969775I4871728J-407772D01*
G01*
X178115559Y-54969776D02*
G75*
G02*
X178224079Y-54877619I108220J-17463D01*
G01*
X178224079Y-54877618D02*
G75*
G02*
X178236998Y-54878480I-2186J-130110D01*
G01*
X192592765Y-56626597D02*
X178236998Y-54878480D01*
X192746879Y-56504996D02*
G75*
G02*
X192592765Y-56626597I-154620675J195803988D01*
G01*
X192747579Y-56505857D02*
X192746879Y-56504996D01*
X192887268Y-56674236D02*
G75*
G02*
X194471688Y-56556888I866991J-951006D01*
G01*
X192551370Y-57518284D02*
G75*
G02*
X192887267Y-56674236I1182547J18255D01*
G01*
X193019903Y-58605644D02*
G75*
G02*
X192551370Y-57518284I1092120J1115207D01*
G01*
X194716182Y-58914572D02*
G75*
G02*
X193019903Y-58605644I-643115J1280222D01*
G01*
X194775502Y-58878346D02*
G75*
G02*
X194716182Y-58914573I-17838606J29142998D01*
G01*
X194952601Y-58738280D02*
G75*
G02*
X194775502Y-58878345I-775977J799160D01*
G01*
X195257762Y-57630035D02*
G75*
G02*
X194952602Y-58738281I-1194987J-267092D01*
G01*
X1498744990Y-1224369616D02*
G75*
G02*
X1499473280Y-1223673552I-2147483648J-2147483648D01*
G01*
X194245496Y-58336927D02*
G75*
G02*
X194185207Y-58356736I-62133J87452D01*
G01*
X194185207Y-58356736D02*
G75*
G02*
X193578009Y-58079837I19741J847486D01*
G01*
X193578009Y-58079837D02*
G75*
G02*
X193459153Y-57306411I760689J512744D01*
G01*
X193459152Y-57306411D02*
G75*
G02*
X193501355Y-57246122I105649J-29039D01*
G01*
X1196271929Y-1322307140D02*
G75*
G02*
X1196405462Y-1322162047I-2147483648J-2147483648D01*
G01*
X197912746Y-54557871D02*
X201375121Y-52115944D01*
X198329818Y-55047667D02*
G75*
G02*
X197912746Y-54557871I448446J804333D01*
G01*
X201845377Y-52630986D02*
X198329818Y-55047667D01*
X201375122Y-52115944D02*
G75*
G02*
X201845377Y-52630986I-867088J-1263891D01*
G01*
X1192973441Y-1325899692D02*
G75*
G02*
X1193614481Y-1325200219I-2147483648J-2147483648D01*
G01*
X193743373Y-57934282D02*
G75*
G02*
X193663275Y-57402013I560033J356438D01*
G01*
X194150755Y-58134528D02*
G75*
G02*
X193743373Y-57934281I54503J625395D01*
G01*
X1195333777Y-1323327264D02*
G75*
G02*
X1196539093Y-1322016874I-2147483648J-2147483648D01*
G01*
X197924912Y-55495906D02*
G75*
G02*
X197394744Y-54751442I716591J1071330D01*
G01*
X194103224Y-59288527D02*
G75*
G02*
X190747863Y-61326409I-342861260J560738019D01*
G01*
X194103225Y-59288527D02*
G75*
G02*
X192864013Y-58761535I20730J1769236D01*
G01*
X192864013Y-58761535D02*
G75*
G02*
X192330884Y-57518715I1247445J1270870D01*
G01*
X192330884Y-57518715D02*
G75*
G02*
X192411090Y-57050236I1474221J-11289D01*
G01*
X1196366283Y-1322204615D02*
G75*
G02*
X1196777074Y-1321758404I-2147483648J-2147483648D01*
G01*
X190183083Y-58808098D02*
G75*
G02*
X190180337Y-58810251I-60423J74213D01*
G01*
X189601507Y-59267533D02*
G75*
G02*
X190180337Y-58810251I395222064J-499678382D01*
G01*
X189227714Y-61034006D02*
X189134723Y-59783156D01*
X189134723Y-59783156D02*
X189601507Y-59267533D01*
X190747863Y-61326410D02*
G75*
G02*
X189227714Y-61034006I-621681J865683D01*
G01*
X190073862Y-58613665D02*
X176948479Y-57775698D01*
X1196359898Y-1322211552D02*
G75*
G02*
X1196696917Y-1321845454I-2147483648J-2147483648D01*
G01*
X178317097Y-55110163D02*
X192348971Y-56818822D01*
X178286952Y-55378450D02*
G75*
G02*
X178317097Y-55110163I3680021J-277648D01*
G01*
X178286952Y-55378450D02*
G75*
G02*
X178202978Y-55629511I-465953J16276D01*
G01*
X176948479Y-57775698D02*
X178202978Y-55629511D01*
X177844042Y-55805372D02*
X176250040Y-58532867D01*
X177844042Y-55805373D02*
G75*
G02*
X174756106Y-56250436I-24741233J160724620D01*
G01*
X174756106Y-56250436D02*
G75*
G02*
X174499931Y-56852520I-4051266J1368195D01*
G01*
X174499931Y-56852520D02*
G75*
G02*
X174438781Y-56976113I-2090001J957153D01*
G01*
X174402769Y-57044692D02*
X174438781Y-56976113D01*
X174402769Y-57044691D02*
G75*
G02*
X174402607Y-57046306I-162927J15476D01*
G01*
X173544671Y-58760996D02*
G75*
G02*
X174402607Y-57046306I111314372J-54623593D01*
G01*
X173544670Y-58760996D02*
G75*
G02*
X173615403Y-58838619I-31605J-99839D01*
G01*
X173635212Y-58952738D02*
X173615403Y-58838619D01*
X176250040Y-58532867D02*
X173635212Y-58952738D01*
X167281595Y-57603981D02*
G75*
G02*
X166434317Y-59744302I-5459997J923557D01*
G01*
X167282833Y-57601774D02*
X167281595Y-57603981D01*
X167282456Y-57600106D02*
X167282833Y-57601774D01*
X167845514Y-54819052D02*
X167282456Y-57600106D01*
X167845514Y-54819052D02*
G75*
G02*
X166808217Y-56839224I-21250898J9635294D01*
G01*
X166434317Y-59744302D02*
X166808217Y-56839224D01*
X165460001Y-60133975D02*
G75*
G02*
X165463446Y-60090911I860405J-47158D01*
G01*
X166172274Y-60053446D02*
X165460001Y-60133975D01*
X166593437Y-56787924D02*
X166172274Y-60053446D01*
X166211301Y-55698951D02*
X166593437Y-56787924D01*
X166211301Y-55698951D02*
G75*
G02*
X165882025Y-55747505I-389429J1500168D01*
G01*
X165882025Y-55747506D02*
G75*
G02*
X163708170Y-55846983I-10323707J201799837D01*
G01*
X163708170Y-55846982D02*
G75*
G02*
X161525702Y-55747505I7659273J192030507D01*
G01*
X161525702Y-55747505D02*
G75*
G02*
X161196857Y-55699166I60773J1556153D01*
G01*
X160815151Y-56801705D02*
X161196857Y-55699166D01*
X161235452Y-60053446D02*
X160815151Y-56801705D01*
X161953755Y-60134406D02*
X161235452Y-60053446D01*
X161953755Y-60134406D02*
G75*
G02*
X161953055Y-60092903I851858J35122D01*
G01*
X161953055Y-60092903D02*
G75*
G02*
X161948587Y-60082729I88276J44835D01*
G01*
X161948587Y-60082729D02*
G75*
G02*
X161951440Y-60075247I92038J-30809D01*
G01*
X161951441Y-60075247D02*
G75*
G02*
X161688483Y-56622129I334171019J27183958D01*
G01*
X161688483Y-56621268D02*
X161688483Y-56622129D01*
X161688483Y-56621268D02*
G75*
G02*
X161765997Y-56438678I246459J3120D01*
G01*
X163634961Y-56082541D02*
X162363695Y-56188407D01*
X162363695Y-56188407D02*
X161765997Y-56438678D01*
X163774488Y-56082541D02*
X163634961Y-56082541D01*
X165641730Y-56438678D02*
X164361783Y-56101096D01*
X164361783Y-56101096D02*
X163774488Y-56082541D01*
X165641730Y-56438678D02*
G75*
G02*
X165719244Y-56621268I-168946J-179471D01*
G01*
X165719244Y-56621268D02*
G75*
G02*
X165502203Y-59565104I-611753679J43623028D01*
G01*
X165463446Y-60090911D02*
X165502203Y-59565104D01*
X160126132Y-57603981D02*
X160124894Y-57601774D01*
X160974164Y-59745594D02*
G75*
G02*
X160126132Y-57603981I4608554J3063594D01*
G01*
X160605215Y-56849075D02*
X160974163Y-59745594D01*
X160605216Y-56849074D02*
G75*
G02*
X159562213Y-54819052I20342391J11734643D01*
G01*
X160125270Y-57600106D02*
X159562213Y-54819052D01*
X160124894Y-57601774D02*
X160125270Y-57600106D01*
X152733818Y-55662670D02*
X152921522Y-55637047D01*
X152837171Y-56115269D02*
G75*
G02*
X152733818Y-55662670I2069331J710640D01*
G01*
X153104166Y-56750889D02*
G75*
G02*
X152837171Y-56115269I3357036J1784023D01*
G01*
X153164455Y-56873622D02*
G75*
G02*
X153104166Y-56750890I1801612J961177D01*
G01*
X153194976Y-56934018D02*
X153164455Y-56873621D01*
X155021361Y-58159936D02*
G75*
G02*
X153194976Y-56934018I1142778J3675965D01*
G01*
X158036681Y-57250859D02*
G75*
G02*
X155021361Y-58159935I-2396975J2495237D01*
G01*
X158833359Y-55789277D02*
G75*
G02*
X158036681Y-57250859I-2788640J572113D01*
G01*
X158917765Y-54825081D02*
G75*
G02*
X158833360Y-55789277I-3827949J-150698D01*
G01*
X158864365Y-54822067D02*
X158917764Y-54825081D01*
X158864366Y-54822067D02*
G75*
G02*
X158830776Y-54814746I7987J117368D01*
G01*
X158788573Y-54798382D02*
X158830776Y-54814746D01*
X158747232Y-54804841D02*
X158788573Y-54798382D01*
X158747232Y-54804841D02*
G75*
G02*
X158115057Y-56787063I-3521849J31278D01*
G01*
X158115057Y-56787062D02*
G75*
G02*
X155861965Y-58013949I-2354678J1641935D01*
G01*
X155861964Y-58013949D02*
G75*
G02*
X155634588Y-58022131I-227063J3146569D01*
G01*
X152921522Y-55637047D02*
X153432681Y-56800071D01*
X153432681Y-56800071D02*
X154389432Y-57714788D01*
X154389432Y-57714788D02*
X155634588Y-58022131D01*
X168689724Y-50448626D02*
X168942992Y-51469128D01*
X168129950Y-52143074D02*
X168689724Y-50448626D01*
X168129950Y-52143075D02*
G75*
G02*
X168287186Y-52978295I-42277330J-8391425D01*
G01*
X168424505Y-52931140D02*
X168287186Y-52978295D01*
X168942992Y-51469128D02*
X168424505Y-52931140D01*
X161539482Y-55527881D02*
X161082146Y-55250550D01*
X163708170Y-55626497D02*
G75*
G02*
X161539482Y-55527881I7823993J195954934D01*
G01*
X165868245Y-55527880D02*
G75*
G02*
X163708170Y-55626496I-10503342J206358118D01*
G01*
X166325581Y-55250120D02*
X165868245Y-55527881D01*
X167239393Y-52149534D02*
G75*
G02*
X166325581Y-55250120I-148951277J42214298D01*
G01*
X167111925Y-51302471D02*
G75*
G02*
X167239393Y-52149534I-995646J-582950D01*
G01*
X167111924Y-51302471D02*
G75*
G02*
X166922444Y-50812406I41759636J16427747D01*
G01*
X166432379Y-49560975D02*
G75*
G02*
X166922444Y-50812406I-54536182J-22078237D01*
G01*
X166432379Y-49560975D02*
G75*
G02*
X166279934Y-49688874I-168674J46245D01*
G01*
X166279933Y-49688874D02*
G75*
G02*
X166169691Y-49582076I37J110336D01*
G01*
X165703365Y-33962929D02*
X166169691Y-49582076D01*
X165703365Y-33962929D02*
G75*
G02*
X163705586Y-34122641I-1957056J11905459D01*
G01*
X163705586Y-34122641D02*
G75*
G02*
X161704362Y-33962875I-40212J12109802D01*
G01*
X161238036Y-49582076D02*
X161704362Y-33962875D01*
X161238036Y-49582077D02*
G75*
G02*
X161127793Y-49688874I-110279J3539D01*
G01*
X161127793Y-49688874D02*
G75*
G02*
X160975348Y-49560975I16229J174144D01*
G01*
X160485283Y-50812406D02*
G75*
G02*
X160975348Y-49560975I55025806J-20826634D01*
G01*
X160485284Y-50812406D02*
G75*
G02*
X160295803Y-51302471I-41950833J15938345D01*
G01*
X160168334Y-52149964D02*
G75*
G02*
X160295803Y-51302471I1123975J264279D01*
G01*
X161082145Y-55250550D02*
G75*
G02*
X160168334Y-52149964I149662156J45793716D01*
G01*
X159120540Y-52978294D02*
G75*
G02*
X159277777Y-52143074I42434566J-7556206D01*
G01*
X158718003Y-50448626D02*
X159277777Y-52143074D01*
X158464734Y-51469128D02*
X158718003Y-50448626D01*
X158983221Y-52931140D02*
X158464734Y-51469128D01*
X159120541Y-52978295D02*
X158983221Y-52931140D01*
X161004846Y-55577673D02*
X160673202Y-56523136D01*
X161004846Y-55577673D02*
G75*
G02*
X160873717Y-55324189I675958J510337D01*
G01*
X160873717Y-55324189D02*
G75*
G02*
X159954738Y-52207239I145392477J44560423D01*
G01*
X159954737Y-52207239D02*
G75*
G02*
X160090819Y-51221511I1334841J317980D01*
G01*
X160279438Y-50733169D02*
G75*
G02*
X160090819Y-51221511I-82486179J31579148D01*
G01*
X160932284Y-49212159D02*
X160380256Y-50470830D01*
X160380256Y-50470830D02*
X160279438Y-50733169D01*
X160932284Y-49212158D02*
G75*
G02*
X161028747Y-49215604I44071J-118209D01*
G01*
X161485006Y-33918842D02*
X161028747Y-49215604D01*
X161485007Y-33918842D02*
G75*
G02*
X160965174Y-33737490I556290J2430276D01*
G01*
X159720472Y-52387245D02*
X160965174Y-33737490D01*
X159720472Y-52387245D02*
G75*
G02*
X159624009Y-52489306I-110015J7364D01*
G01*
X159624008Y-52489306D02*
G75*
G02*
X159505153Y-52413945I-18904J101591D01*
G01*
X159470218Y-52306286D02*
X159505153Y-52413945D01*
X159314812Y-53143014D02*
G75*
G02*
X159470218Y-52306286I51327135J-9100235D01*
G01*
X159314812Y-53143013D02*
G75*
G02*
X159313735Y-53144736I-26120J15127D01*
G01*
X159313950Y-53146028D02*
X159313735Y-53144736D01*
X159293279Y-53276511D02*
G75*
G02*
X159313950Y-53146028I2046196J-257271D01*
G01*
X159293280Y-53276511D02*
G75*
G02*
X159275139Y-53392083I-4400529J631510D01*
G01*
X160673202Y-56523137D02*
G75*
G02*
X159275139Y-53392083I13301813J7817117D01*
G01*
X168132588Y-53392082D02*
G75*
G02*
X166734525Y-56523136I-14699879J4686063D01*
G01*
X168132587Y-53392083D02*
G75*
G02*
X168114447Y-53276511I4382820J747150D01*
G01*
X168093776Y-53146028D02*
G75*
G02*
X168114447Y-53276511I-2025534J-387755D01*
G01*
X168093992Y-53144736D02*
X168093776Y-53146028D01*
X168093991Y-53144736D02*
G75*
G02*
X168092915Y-53143013I24991J16817D01*
G01*
X167937509Y-52306285D02*
G75*
G02*
X168092915Y-53143013I-51171730J-9936964D01*
G01*
X167902574Y-52413945D02*
X167937509Y-52306286D01*
X167902574Y-52413945D02*
G75*
G02*
X167783718Y-52489306I-99863J26091D01*
G01*
X167783717Y-52489306D02*
G75*
G02*
X167687255Y-52387245I13553J109425D01*
G01*
X166442499Y-33737221D02*
X167687255Y-52387245D01*
X166442499Y-33737221D02*
G75*
G02*
X165922720Y-33918842I-1075408J2243109D01*
G01*
X166378980Y-49215604D02*
X165922720Y-33918842D01*
X166378980Y-49215604D02*
G75*
G02*
X166474581Y-49211729I52544J-115077D01*
G01*
X167128288Y-50733169D02*
X166667078Y-49551552D01*
X166667078Y-49551552D02*
X166474581Y-49211729D01*
X167316907Y-51221511D02*
G75*
G02*
X167128288Y-50733169I82297560J32067490D01*
G01*
X167316907Y-51221512D02*
G75*
G02*
X167452988Y-52206809I-1197897J-667489D01*
G01*
X167452988Y-52206809D02*
G75*
G02*
X166534009Y-55323759I-144792980J40995777D01*
G01*
X166534009Y-55323758D02*
G75*
G02*
X166402826Y-55577511I-807704J256774D01*
G01*
X166734525Y-56523136D02*
X166402826Y-55577511D01*
X174673909Y-55662670D02*
G75*
G02*
X174570556Y-56117423I-2268273J276396D01*
G01*
X174484967Y-55636832D02*
X174673909Y-55662670D01*
X171545762Y-58013949D02*
X172895310Y-57778447D01*
X172895310Y-57778447D02*
X173856100Y-56965750D01*
X173856100Y-56965750D02*
X174434178Y-55813799D01*
X174434178Y-55813799D02*
X174484967Y-55636832D01*
X171545761Y-58013950D02*
G75*
G02*
X169292669Y-56787063I101586J2868823D01*
G01*
X169292669Y-56787063D02*
G75*
G02*
X168660494Y-54804841I2889674J2013500D01*
G01*
X168619153Y-54798382D02*
X168660494Y-54804841D01*
X168576951Y-54814746D02*
X168619153Y-54798382D01*
X168576951Y-54814747D02*
G75*
G02*
X168543361Y-54822067I-41578J110048D01*
G01*
X168489962Y-54825081D02*
X168543361Y-54822067D01*
X168574367Y-55791000D02*
G75*
G02*
X168489962Y-54825081I3759496J815163D01*
G01*
X169371046Y-57250859D02*
G75*
G02*
X168574367Y-55791000I1992919J2034894D01*
G01*
X172386365Y-58160366D02*
G75*
G02*
X169371045Y-57250859I-615775J3411651D01*
G01*
X174212751Y-56934018D02*
G75*
G02*
X172386365Y-58160366I-2971942J2452896D01*
G01*
X174243272Y-56873621D02*
X174212750Y-56934018D01*
X174300116Y-56758210D02*
G75*
G02*
X174243272Y-56873621I-1726786J778801D01*
G01*
X174570556Y-56117422D02*
G75*
G02*
X174300116Y-56758210I-3732834J1197953D01*
G01*
X168712171Y-47746702D02*
X168781934Y-47731630D01*
X168665824Y-48484168D02*
X168712171Y-47746702D01*
X169776706Y-49888260D02*
G75*
G02*
X168665824Y-48484168I1647121J2444658D01*
G01*
X171940225Y-50377463D02*
G75*
G02*
X169776705Y-49888259I-372232J3382511D01*
G01*
X171940225Y-50377463D02*
G75*
G02*
X172011711Y-50367989I160766J-938619D01*
G01*
X172552645Y-50251232D02*
X172011711Y-50367989D01*
X173606144Y-48929661D02*
G75*
G02*
X172552645Y-50251232I-3674420J1848401D01*
G01*
X173606144Y-48929662D02*
G75*
G02*
X172029798Y-49774141I-2154296J2127834D01*
G01*
X169292669Y-48735014D02*
X170350366Y-49518140D01*
X170350366Y-49518140D02*
X171567869Y-49827872D01*
X171567869Y-49827872D02*
X172029798Y-49774141D01*
X169292669Y-48735014D02*
G75*
G02*
X168781934Y-47731630I1774566J1534955D01*
G01*
X154856697Y-50252471D02*
G75*
G02*
X153804005Y-48934076I2619689J3171197D01*
G01*
X155401183Y-50370573D02*
X154856697Y-50252471D01*
X155401183Y-50370572D02*
G75*
G02*
X155445108Y-50374448I13638J-96281D01*
G01*
X155445108Y-50374448D02*
G75*
G02*
X155537264Y-50386506I-10324J-437100D01*
G01*
X157632744Y-49886968D02*
G75*
G02*
X155537264Y-50386506I-1767244J2768427D01*
G01*
X158741795Y-48484436D02*
G75*
G02*
X157632744Y-49886967I-2755527J1039176D01*
G01*
X158695556Y-47746702D02*
X158741795Y-48484437D01*
X158625954Y-47731630D02*
X158695556Y-47746702D01*
X158625953Y-47731630D02*
G75*
G02*
X158115918Y-48734583I-2285216J530948D01*
G01*
X155377929Y-49773710D02*
X156689883Y-49671452D01*
X156689883Y-49671452D02*
X157790370Y-49045533D01*
X157790370Y-49045533D02*
X158115918Y-48734583D01*
X155377930Y-49773710D02*
G75*
G02*
X153804005Y-48934076I579667J2981614D01*
G01*
X153792323Y-58838619D02*
G75*
G02*
X153862948Y-58761158I102844J-22841D01*
G01*
X153005119Y-57046306D02*
G75*
G02*
X153862948Y-58761158I-109221004J-55708148D01*
G01*
X153005119Y-57046307D02*
G75*
G02*
X153004958Y-57044692I163033J17118D01*
G01*
X152968946Y-56976113D02*
X153004958Y-57044692D01*
X152968945Y-56976113D02*
G75*
G02*
X152904350Y-56845199I2156190J1145303D01*
G01*
X152904350Y-56845198D02*
G75*
G02*
X152652266Y-56250489I3686170J1913265D01*
G01*
X152652266Y-56250489D02*
G75*
G02*
X149563846Y-55805641I21931472J163205708D01*
G01*
X151157687Y-58532867D02*
X149563846Y-55805641D01*
X153772514Y-58952738D02*
X151157687Y-58532867D01*
X153792324Y-58838619D02*
X153772514Y-58952738D01*
X150459248Y-57775698D02*
X137333703Y-58613719D01*
X149204856Y-55629726D02*
X150459248Y-57775698D01*
X149204856Y-55629726D02*
G75*
G02*
X149120774Y-55378880I381340J267337D01*
G01*
X149090630Y-55110163D02*
G75*
G02*
X149120774Y-55378880I-3662815J-546942D01*
G01*
X135058756Y-56818822D02*
X149090630Y-55110163D01*
X1220958212Y-1295930029D02*
G75*
G02*
X1221467539Y-1295395096I-2147483648J-2147483648D01*
G01*
X137805358Y-59267103D02*
X138427332Y-60351448D01*
X138427332Y-60351448D02*
X138180012Y-61034006D01*
X137228089Y-58810951D02*
G75*
G02*
X137805358Y-59267103I-303469230J-384639139D01*
G01*
X137228089Y-58810951D02*
G75*
G02*
X137221845Y-58806052I46690J65946D01*
G01*
X1221014548Y-1295870843D02*
G75*
G02*
X1221607715Y-1295247937I-2147483648J-2147483648D01*
G01*
X134996636Y-57050290D02*
G75*
G02*
X135076842Y-57518715I-1393420J-479668D01*
G01*
X135076843Y-57518715D02*
G75*
G02*
X134542853Y-58761535I-1777845J27741D01*
G01*
X134542852Y-58761535D02*
G75*
G02*
X133304448Y-59288527I-1257009J1235320D01*
G01*
X136659864Y-61326408D02*
G75*
G02*
X133304448Y-59288527I341340213J565805230D01*
G01*
X138180012Y-61034006D02*
G75*
G02*
X136659864Y-61326409I-898507J573488D01*
G01*
X1221849832Y-1294993824D02*
G75*
G02*
X1222504524Y-1294307113I-2147483648J-2147483648D01*
G01*
X130012983Y-54751442D02*
G75*
G02*
X129482815Y-55495906I-1246760J326866D01*
G01*
X1222291656Y-1294530325D02*
G75*
G02*
X1223520837Y-1293242296I-2147483648J-2147483648D01*
G01*
X133664353Y-57934281D02*
G75*
G02*
X133256971Y-58134528I-461679J424729D01*
G01*
X133744451Y-57402012D02*
G75*
G02*
X133664353Y-57934281I-640131J-175832D01*
G01*
X125369424Y-52766205D02*
G75*
G02*
X125323777Y-52657685I63763J90681D01*
G01*
X125323778Y-52657686D02*
G75*
G02*
X126025715Y-51885123I1328693J-502063D01*
G01*
X126025716Y-51885123D02*
G75*
G02*
X126048970Y-51882539I23362J-104323D01*
G01*
X126048970Y-51882539D02*
G75*
G02*
X126112704Y-51902779I-122J-110850D01*
G01*
X129667181Y-54409516D02*
X126112704Y-51902779D01*
X129953124Y-54453441D02*
X129667181Y-54409516D01*
X129953125Y-54453442D02*
G75*
G02*
X129998772Y-54471098I-18112J-114660D01*
G01*
X1221743125Y-1295105808D02*
G75*
G02*
X1222492532Y-1294319686I-2147483648J-2147483648D01*
G01*
X132736762Y-56415369D02*
G75*
G02*
X133668660Y-56110532I967763J-1381647D01*
G01*
X133668659Y-56110532D02*
G75*
G02*
X134068667Y-56171467I-20271J-1476464D01*
G01*
X153387848Y-53606486D02*
X134068667Y-56171467D01*
X153387847Y-53606486D02*
G75*
G02*
X153576682Y-53387238I2743795J-2172236D01*
G01*
X137093084Y-48856023D02*
X153576682Y-53387238D01*
X137093084Y-48856022D02*
G75*
G02*
X137038824Y-48822002I32406J111966D01*
G01*
X136598444Y-48313528D02*
X137038824Y-48822002D01*
X136172383Y-48244088D02*
X136598444Y-48313528D01*
X136172383Y-48244087D02*
G75*
G02*
X136107787Y-48207914I17537J107078D01*
G01*
X134350789Y-46211051D02*
X136107787Y-48207914D01*
X134350789Y-46211051D02*
G75*
G02*
X134337008Y-46085305I81857J72599D01*
G01*
X134337009Y-46085305D02*
G75*
G02*
X134433471Y-46028030I96154J-52075D01*
G01*
X134433471Y-46028030D02*
G75*
G02*
X134449835Y-46029322I-38J-104766D01*
G01*
X134682110Y-46065119D02*
X134449835Y-46029322D01*
X134682110Y-46065119D02*
G75*
G02*
X134679795Y-46012958I98726J30513D01*
G01*
X134835686Y-45581459D02*
X134679795Y-46012958D01*
X134835686Y-45581459D02*
G75*
G02*
X134939039Y-45508682I103073J-36602D01*
G01*
X134939038Y-45508682D02*
G75*
G02*
X134959709Y-45510835I-1247J-112277D01*
G01*
X135733618Y-45660481D02*
X134959709Y-45510835D01*
X134407633Y-44120739D02*
X135733618Y-45660481D01*
X134407633Y-44120739D02*
G75*
G02*
X134387231Y-44058835I85873J62615D01*
G01*
X134387231Y-44058835D02*
G75*
G02*
X134329257Y-43992840I854185J808835D01*
G01*
X134329257Y-43992839D02*
G75*
G02*
X134383679Y-42663410I1124994J619775D01*
G01*
X131875488Y-39496129D02*
G75*
G02*
X134383679Y-42663410I-529104014J-421577788D01*
G01*
X131875487Y-39496129D02*
G75*
G02*
X131872473Y-39490800I230370J133828D01*
G01*
X131872473Y-39490799D02*
G75*
G02*
X131869674Y-39485847I98749J59081D01*
G01*
X131869674Y-39485847D02*
G75*
G02*
X131710123Y-39076258I478267J422174D01*
G01*
X131710123Y-39076258D02*
G75*
G02*
X128501878Y-35024395I1148378098J912576201D01*
G01*
X128501878Y-35024394D02*
G75*
G02*
X128493265Y-34901663I86849J67762D01*
G01*
X128493265Y-34901663D02*
G75*
G02*
X129259799Y-34390928I835697J-423660D01*
G01*
X129259799Y-34390928D02*
G75*
G02*
X129346787Y-34433561I145J-109766D01*
G01*
X159257107Y-28504121D02*
G75*
G02*
X160891804Y-22458409I59760425J-12914741D01*
G01*
X162455016Y-20373265D02*
X161430255Y-21111308D01*
X161430255Y-21111308D02*
X160931531Y-22344140D01*
X160931531Y-22344140D02*
X160891804Y-22458409D01*
X162455016Y-20373265D02*
G75*
G02*
X163703863Y-20337953I1489161J-30564479D01*
G01*
X163703863Y-20337953D02*
G75*
G02*
X164952710Y-20373265I-240313J-30599634D01*
G01*
X166515922Y-22457979D02*
X166057798Y-21267455D01*
X166057798Y-21267455D02*
X165105935Y-20389604D01*
X165105935Y-20389604D02*
X164952710Y-20373265D01*
X166515923Y-22457978D02*
G75*
G02*
X168151482Y-28504982I-58338233J-19023683D01*
G01*
X168151481Y-28504982D02*
G75*
G02*
X168262586Y-29151799I-12793014J-2530420D01*
G01*
X168275505Y-29233189D02*
X168262586Y-29151799D01*
X168275451Y-29233459D02*
X168275505Y-29233189D01*
X168275505Y-29233620D02*
X168275451Y-29233459D01*
X168275505Y-29233620D02*
G75*
G02*
X168427089Y-31409198I-11034013J-1861869D01*
G01*
X168426981Y-31409521D02*
X168427089Y-31409198D01*
X168426982Y-31409521D02*
G75*
G02*
X168403835Y-32355738I-28834411J231967D01*
G01*
X168365078Y-35430916D02*
G75*
G02*
X168403835Y-32355738I61536720J762269D01*
G01*
X168854872Y-46148447D02*
G75*
G02*
X168365077Y-35430916I445959654J25750503D01*
G01*
X168854874Y-46148448D02*
G75*
G02*
X170898945Y-44478168I2355285J-796478D01*
G01*
X170898945Y-44478168D02*
G75*
G02*
X171286518Y-44459220I390593J-4016104D01*
G01*
X171286519Y-44459220D02*
G75*
G02*
X174180506Y-46408713I36208J-3069031D01*
G01*
X174378492Y-46366511D02*
X174180506Y-46408713D01*
X132536085Y-38542268D02*
X129346787Y-34433561D01*
X132906432Y-38808402D02*
X132536085Y-38542268D01*
X132906431Y-38808402D02*
G75*
G02*
X132928825Y-38829933I-69642J-94839D01*
G01*
X135360417Y-41935849D02*
X132928825Y-38829933D01*
X135360417Y-41935848D02*
G75*
G02*
X135779642Y-41867646I468439J-1556857D01*
G01*
X135779641Y-41867646D02*
G75*
G02*
X136826843Y-42362071I16843J-1320538D01*
G01*
X136826844Y-42362071D02*
G75*
G02*
X136851067Y-42374506I-31396J-90971D01*
G01*
X189799386Y-43434789D02*
G75*
G02*
X189799601Y-43434304I1062307J-471781D01*
G01*
X189799601Y-43434304D02*
G75*
G02*
X189799816Y-43434196I109650J-218942D01*
G01*
X190556660Y-42374506D02*
X189799816Y-43434196D01*
X190556660Y-42374506D02*
G75*
G02*
X190580937Y-42362018I55140J-77348D01*
G01*
X190580937Y-42362018D02*
G75*
G02*
X191628085Y-41867646I1029946J-825380D01*
G01*
X191628085Y-41867646D02*
G75*
G02*
X192047310Y-41935848I-49213J-1625055D01*
G01*
X194478902Y-38829933D02*
X192047310Y-41935848D01*
X194478902Y-38829934D02*
G75*
G02*
X194501295Y-38808402I92032J-73303D01*
G01*
X194871642Y-38542268D02*
X194501295Y-38808402D01*
X198060940Y-34433561D02*
X194871642Y-38542268D01*
X198060940Y-34433561D02*
G75*
G02*
X198147928Y-34390928I86843J-67133D01*
G01*
X198147928Y-34390928D02*
G75*
G02*
X198914462Y-34901663I-69163J-934395D01*
G01*
X198914462Y-34901664D02*
G75*
G02*
X198905849Y-35024395I-95462J-54968D01*
G01*
X198905849Y-35024395D02*
G75*
G02*
X195697604Y-39076258I-1234795722J974409115D01*
G01*
X195697604Y-39076258D02*
G75*
G02*
X195538053Y-39485847I-637818J12585D01*
G01*
X195538053Y-39485848D02*
G75*
G02*
X195535254Y-39490800I-101548J54130D01*
G01*
X195535254Y-39490800D02*
G75*
G02*
X195532239Y-39496129I-233764J128714D01*
G01*
X193023994Y-42663410D02*
G75*
G02*
X195532239Y-39496129I530631432J-417642798D01*
G01*
X193023995Y-42663410D02*
G75*
G02*
X193077609Y-43994132I-1071010J-709591D01*
G01*
X193077609Y-43994131D02*
G75*
G02*
X193020334Y-44059265I-903581J736804D01*
G01*
X193020334Y-44059266D02*
G75*
G02*
X193000094Y-44120739I-105825J774D01*
G01*
X191674109Y-45660481D02*
X193000094Y-44120739D01*
X192448018Y-45510835D02*
X191674109Y-45660481D01*
X192448017Y-45510835D02*
G75*
G02*
X192468688Y-45508682I21919J-110124D01*
G01*
X192468689Y-45508681D02*
G75*
G02*
X192572041Y-45581459I279J-109379D01*
G01*
X192727932Y-46012958D02*
X192572041Y-45581459D01*
X192727932Y-46012957D02*
G75*
G02*
X192725617Y-46065118I-101040J-21649D01*
G01*
X192957892Y-46029322D02*
X192725617Y-46065118D01*
X192957892Y-46029322D02*
G75*
G02*
X192974256Y-46028030I16403J-103485D01*
G01*
X192974256Y-46028029D02*
G75*
G02*
X193070719Y-46085305I308J-109351D01*
G01*
X193070719Y-46085305D02*
G75*
G02*
X193056938Y-46211051I-95638J-53147D01*
G01*
X191299940Y-48207914D02*
X193056938Y-46211051D01*
X191299940Y-48207915D02*
G75*
G02*
X191235344Y-48244088I-82134J70906D01*
G01*
X190810144Y-48313366D02*
X191235344Y-48244088D01*
X190368903Y-48822002D02*
X190810144Y-48313366D01*
X190368902Y-48822003D02*
G75*
G02*
X190314642Y-48856023I-86665J77946D01*
G01*
X173831314Y-53387184D02*
X190314642Y-48856023D01*
X173831314Y-53387184D02*
G75*
G02*
X174019933Y-53606486I-2508113J-2347965D01*
G01*
X193339329Y-56171521D02*
X174019933Y-53606486D01*
X193339328Y-56171521D02*
G75*
G02*
X193739067Y-56110532I420489J-1415505D01*
G01*
X193739068Y-56110531D02*
G75*
G02*
X194670966Y-56415369I-35866J-1686485D01*
G01*
X1192745959Y-1326148058D02*
G75*
G02*
X1193479669Y-1325347267I-2147483648J-2147483648D01*
G01*
X197408955Y-54471096D02*
G75*
G02*
X197454603Y-54453441I63759J-97006D01*
G01*
X197740546Y-54409516D02*
X197454603Y-54453441D01*
X201295023Y-51902779D02*
X197740546Y-54409516D01*
X201295023Y-51902779D02*
G75*
G02*
X201358757Y-51882539I63856J-90610D01*
G01*
X201358758Y-51882539D02*
G75*
G02*
X201382012Y-51885123I-109J-106907D01*
G01*
X201382012Y-51885122D02*
G75*
G02*
X202083950Y-52657685I-626756J-1274627D01*
G01*
X202083950Y-52657685D02*
G75*
G02*
X202038302Y-52766206I-109411J-17839D01*
G01*
X198425258Y-55249689D02*
X202038302Y-52766206D01*
X198425258Y-55249689D02*
G75*
G02*
X198188408Y-55580418I-699443J250729D01*
G01*
X198188408Y-55580418D02*
G75*
G02*
X195454994Y-57492231I-815770242J1163437530D01*
G01*
X195454993Y-57492231D02*
G75*
G02*
X195108493Y-58894171I-1401610J-397371D01*
G01*
X195108493Y-58894171D02*
G75*
G02*
X194909162Y-59052753I-920041J951886D01*
G01*
X194909162Y-59052754D02*
G75*
G02*
X194905232Y-59058244I-84232J56133D01*
G01*
X194905233Y-59058245D02*
G75*
G02*
X194892690Y-59065888I-5063648J8294547D01*
G01*
X194892690Y-59065887D02*
G75*
G02*
X194841713Y-59097001I-703338J1095037D01*
G01*
X194841714Y-59097001D02*
G75*
G02*
X190859829Y-61515889I-439505717J719011376D01*
G01*
X190859829Y-61515889D02*
G75*
G02*
X189046847Y-61158891I-734351J1052697D01*
G01*
X189464565Y-59094848D02*
X188769843Y-60150435D01*
X188769843Y-60150435D02*
X189046847Y-61158891D01*
X189464565Y-59094848D02*
G75*
G02*
X189815372Y-58817679I213743693J-270171103D01*
G01*
X176824240Y-57988273D02*
X189815372Y-58817679D01*
X176414543Y-58689188D02*
X176824240Y-57988273D01*
X176414543Y-58689188D02*
G75*
G02*
X176336167Y-58742587I-96640J57626D01*
G01*
X173562865Y-59187866D02*
X176336167Y-58742587D01*
X173562866Y-59187866D02*
G75*
G02*
X173437119Y-59097863I-16348J110005D01*
G01*
X173421455Y-59008990D02*
X173437119Y-59097863D01*
X173421455Y-59008990D02*
G75*
G02*
X173062465Y-59718410I-91670147J45942523D01*
G01*
X173062465Y-59718411D02*
G75*
G02*
X173028014Y-59758029I-100381J52500D01*
G01*
X173028014Y-59758028D02*
G75*
G02*
X172853176Y-59860951I-810298J1176526D01*
G01*
X172853175Y-59860951D02*
G75*
G02*
X172064249Y-60515519I-1572735J1092844D01*
G01*
X171935058Y-60868210D02*
G75*
G02*
X172064249Y-60515519I490402J20372D01*
G01*
X171935058Y-60868211D02*
G75*
G02*
X171933335Y-60913428I-112936J-18339D01*
G01*
X171933335Y-60913428D02*
G75*
G02*
X171056558Y-62940005I-9191425J2773618D01*
G01*
X171056559Y-62940005D02*
G75*
G02*
X169624260Y-63507585I-1251895J1068173D01*
G01*
X169624260Y-63507584D02*
G75*
G02*
X168180765Y-62292758I329650J1856716D01*
G01*
X168180765Y-62292758D02*
G75*
G02*
X168262586Y-61033576I2972349J439108D01*
G01*
X168262586Y-61033576D02*
G75*
G02*
X168614847Y-59862243I24291769J-6666758D01*
G01*
X168614847Y-59862244D02*
G75*
G02*
X167831949Y-58281806I2285655J2116371D01*
G01*
X167831949Y-58281806D02*
G75*
G02*
X167589070Y-58124623I-27416J223877D01*
G01*
X167589070Y-58124623D02*
G75*
G02*
X167601989Y-57732311I62242114J-1853303D01*
G01*
X167478558Y-57732311D02*
X167601989Y-57732311D01*
X167478557Y-57732311D02*
G75*
G02*
X166353142Y-60226131I-5483433J973724D01*
G01*
X166349697Y-60227854D02*
G75*
G02*
X166353142Y-60226131I28037697J-56072522D01*
G01*
X166349697Y-60227855D02*
G75*
G02*
X166282517Y-60262736I-80048J72035D01*
G01*
X166278049Y-60263220D02*
X166282517Y-60262736D01*
X166278049Y-60263220D02*
G75*
G02*
X166277511Y-60263274I-449J1777D01*
G01*
X165347174Y-60368242D02*
X166277511Y-60263274D01*
X165347174Y-60368242D02*
G75*
G02*
X165255879Y-60335082I-7197J122443D01*
G01*
X165255879Y-60335083D02*
G75*
G02*
X165225734Y-60242065I77943J76653D01*
G01*
X165232194Y-60192972D02*
G75*
G02*
X165225734Y-60242065I-798920J80149D01*
G01*
X162177201Y-60192972D02*
X165232194Y-60192972D01*
X162181992Y-60242495D02*
G75*
G02*
X162177201Y-60192972I795260J101925D01*
G01*
X162181993Y-60242495D02*
G75*
G02*
X162151848Y-60335082I-110511J-15221D01*
G01*
X162151848Y-60335082D02*
G75*
G02*
X162060553Y-60368241I-80741J80041D01*
G01*
X161130700Y-60263328D02*
X162060553Y-60368241D01*
X161130485Y-60263328D02*
X161130700Y-60263328D01*
X161125209Y-60262735D02*
X161130485Y-60263328D01*
X161125209Y-60262736D02*
G75*
G02*
X161058030Y-60227800I12954J106970D01*
G01*
X161058030Y-60227800D02*
G75*
G02*
X161054585Y-60226131I42248J91613D01*
G01*
X161054584Y-60226131D02*
G75*
G02*
X159929169Y-57732311I4358017J3467543D01*
G01*
X159805738Y-57732311D02*
X159929169Y-57732311D01*
X159805738Y-57732311D02*
G75*
G02*
X159818657Y-58124623I-62235855J-2245834D01*
G01*
X159818657Y-58124623D02*
G75*
G02*
X159575778Y-58281806I-215463J66694D01*
G01*
X159575778Y-58281805D02*
G75*
G02*
X158792880Y-59862243I-3068553J535932D01*
G01*
X158792880Y-59862243D02*
G75*
G02*
X159145141Y-61033145I-24043581J-7871853D01*
G01*
X159145140Y-61033145D02*
G75*
G02*
X159228684Y-62277255I-2865653J-817292D01*
G01*
X151071560Y-58742587D02*
G75*
G02*
X150993184Y-58689188I18264J111025D01*
G01*
X150583486Y-57988273D02*
X150993184Y-58689188D01*
X137592139Y-58817679D02*
X150583486Y-57988273D01*
X137592139Y-58817679D02*
G75*
G02*
X137942301Y-59094417I-221098333J-280119649D01*
G01*
X159228684Y-62277254D02*
G75*
G02*
X157783467Y-63508015I-1774967J620348D01*
G01*
X157783467Y-63508015D02*
G75*
G02*
X156355475Y-62944312I-176972J1642259D01*
G01*
X156355476Y-62944311D02*
G75*
G02*
X155474392Y-60913428I8244482J4783372D01*
G01*
X155474392Y-60913428D02*
G75*
G02*
X155472669Y-60868211I111215J26878D01*
G01*
X155343478Y-60515520D02*
G75*
G02*
X155472669Y-60868211I-361211J-332318D01*
G01*
X155343478Y-60515519D02*
G75*
G02*
X154554551Y-59860951I772040J1733227D01*
G01*
X154554552Y-59860951D02*
G75*
G02*
X154379713Y-59758029I635459J1279449D01*
G01*
X154379712Y-59758029D02*
G75*
G02*
X154345262Y-59718410I65930J92118D01*
G01*
X154345261Y-59718411D02*
G75*
G02*
X153986218Y-59009313I93164336J47618161D01*
G01*
X153970607Y-59097863D02*
X153986218Y-59009313D01*
X153970608Y-59097864D02*
G75*
G02*
X153844861Y-59187866I-108060J18131D01*
G01*
X151071560Y-58742587D02*
X153844861Y-59187866D01*
X160924371Y-50746680D02*
X160828554Y-50513060D01*
X160798571Y-53777772D02*
X160924371Y-50746680D01*
X156500169Y-44476875D02*
G75*
G02*
X158552854Y-46148554I-305842J-2471653D01*
G01*
X159042650Y-35431346D02*
G75*
G02*
X158552854Y-46148554I-446463645J15034396D01*
G01*
X159003892Y-32355738D02*
G75*
G02*
X159042649Y-35431347I-61508251J-2313145D01*
G01*
X159003892Y-32355738D02*
G75*
G02*
X158980745Y-31409521I28811516J1178190D01*
G01*
X158980637Y-31409198D02*
X158980745Y-31409521D01*
X158980637Y-31409198D02*
G75*
G02*
X159132222Y-29233620I11185597J313709D01*
G01*
X159132275Y-29233459D02*
X159132222Y-29233620D01*
X177778801Y-47641626D02*
G75*
G02*
X177875264Y-47722586I-9596J-109381D01*
G01*
X178032338Y-48298725D02*
X177875264Y-47722586D01*
X187654490Y-46437889D02*
X178032338Y-48298725D01*
X189799385Y-43434788D02*
X187654490Y-46437889D01*
X125369425Y-52766206D02*
X128982468Y-55249689D01*
X160828554Y-50513060D02*
X160259468Y-51852879D01*
X160259468Y-51852879D02*
X160798571Y-53777772D01*
X137607911Y-43434196D02*
X136851067Y-42374506D01*
X137608126Y-43434304D02*
G75*
G02*
X137607911Y-43434196I109436J219050D01*
G01*
X137608341Y-43434789D02*
G75*
G02*
X137608126Y-43434304I1062093J472268D01*
G01*
X139753236Y-46437889D02*
X137608342Y-43434788D01*
X149375388Y-48298725D02*
X139753236Y-46437889D01*
X149532463Y-47722586D02*
X149375388Y-48298725D01*
X149532463Y-47722586D02*
G75*
G02*
X149628926Y-47641626I106059J-28421D01*
G01*
X153106319Y-47352992D02*
X149628926Y-47641626D01*
X152899183Y-46500008D02*
X153106319Y-47352992D01*
X152899183Y-46500008D02*
G75*
G02*
X152926743Y-46397516I106334J26358D01*
G01*
X152926744Y-46397516D02*
G75*
G02*
X153005981Y-46363927I79363J-76963D01*
G01*
X153005981Y-46363927D02*
G75*
G02*
X153029235Y-46366511I-108J-106907D01*
G01*
X153228028Y-46408874D02*
X153029235Y-46366511D01*
X153228028Y-46408874D02*
G75*
G02*
X156116041Y-44458358I2847841J-1103317D01*
G01*
X156116041Y-44458358D02*
G75*
G02*
X156500169Y-44476876I-5272J-4102829D01*
G01*
X174378492Y-46366511D02*
G75*
G02*
X174401746Y-46363927I23362J-104323D01*
G01*
X174401746Y-46363927D02*
G75*
G02*
X174480983Y-46397516I-126J-110552D01*
G01*
X174480984Y-46397516D02*
G75*
G02*
X174508544Y-46500008I-78774J-76134D01*
G01*
X174301408Y-47352992D02*
X174508544Y-46500008D01*
X177778801Y-47641626D02*
X174301408Y-47352992D01*
X159132222Y-29233189D02*
X159132275Y-29233459D01*
X159145141Y-29151799D02*
X159132222Y-29233189D01*
X159145140Y-29151799D02*
G75*
G02*
X159257106Y-28504121I12192469J-1774223D01*
G01*
X132517029Y-59067126D02*
G75*
G02*
X132502495Y-59058244I6452697J10575298D01*
G01*
X132502494Y-59058244D02*
G75*
G02*
X132497865Y-59051838I72498J57268D01*
G01*
X132497865Y-59051838D02*
G75*
G02*
X132300095Y-58894171I717433J1102783D01*
G01*
X132300095Y-58894172D02*
G75*
G02*
X131952733Y-57492231I1052667J1004826D01*
G01*
X131952733Y-57492230D02*
G75*
G02*
X129219319Y-55580418I813036827J1165349342D01*
G01*
X129219318Y-55580419D02*
G75*
G02*
X128982468Y-55249689I462594J581459D01*
G01*
X138360880Y-61158891D02*
X138569850Y-59889560D01*
X138569850Y-59889560D02*
X137942301Y-59094417D01*
X138360880Y-61158891D02*
G75*
G02*
X136547898Y-61515889I-1078546J695269D01*
G01*
X136547899Y-61515888D02*
G75*
G02*
X132564453Y-59096032I436190296J722523000D01*
G01*
X132564453Y-59096033D02*
G75*
G02*
X132517029Y-59067126I635547J1096033D01*
G01*
D12*
%TO.C,U1*%
X157650000Y4776000D02*
X155110000Y4776000D01*
X157650000Y7316000D02*
X157650000Y4776000D01*
X172890000Y-23164000D02*
X172890000Y7316000D01*
X155110000Y-23164000D02*
X172890000Y-23164000D01*
X155110000Y7316000D02*
X155110000Y-23164000D01*
X172890000Y7316000D02*
X155110000Y7316000D01*
D13*
X170379333Y-21844000D02*
X170279333Y-21877333D01*
X170246000Y-21910666D01*
X170212666Y-21977333D01*
X170212666Y-22077333D01*
X170246000Y-22144000D01*
X170279333Y-22177333D01*
X170346000Y-22210666D01*
X170612666Y-22210666D01*
X170612666Y-21510666D01*
X170379333Y-21510666D01*
X170312666Y-21544000D01*
X170279333Y-21577333D01*
X170246000Y-21644000D01*
X170246000Y-21710666D01*
X170279333Y-21777333D01*
X170312666Y-21810666D01*
X170379333Y-21844000D01*
X170612666Y-21844000D01*
X169579333Y-21510666D02*
X169912666Y-21510666D01*
X169946000Y-21844000D01*
X169912666Y-21810666D01*
X169846000Y-21777333D01*
X169679333Y-21777333D01*
X169612666Y-21810666D01*
X169579333Y-21844000D01*
X169546000Y-21910666D01*
X169546000Y-22077333D01*
X169579333Y-22144000D01*
X169612666Y-22177333D01*
X169679333Y-22210666D01*
X169846000Y-22210666D01*
X169912666Y-22177333D01*
X169946000Y-22144000D01*
X170379333Y-19304000D02*
X170279333Y-19337333D01*
X170246000Y-19370666D01*
X170212666Y-19437333D01*
X170212666Y-19537333D01*
X170246000Y-19604000D01*
X170279333Y-19637333D01*
X170346000Y-19670666D01*
X170612666Y-19670666D01*
X170612666Y-18970666D01*
X170379333Y-18970666D01*
X170312666Y-19004000D01*
X170279333Y-19037333D01*
X170246000Y-19104000D01*
X170246000Y-19170666D01*
X170279333Y-19237333D01*
X170312666Y-19270666D01*
X170379333Y-19304000D01*
X170612666Y-19304000D01*
X169612666Y-19204000D02*
X169612666Y-19670666D01*
X169779333Y-18937333D02*
X169946000Y-19437333D01*
X169512666Y-19437333D01*
X170579333Y-16764000D02*
X170346000Y-16764000D01*
X170246000Y-17130666D02*
X170579333Y-17130666D01*
X170579333Y-16430666D01*
X170246000Y-16430666D01*
X169646000Y-16430666D02*
X169779333Y-16430666D01*
X169846000Y-16464000D01*
X169879333Y-16497333D01*
X169946000Y-16597333D01*
X169979333Y-16730666D01*
X169979333Y-16997333D01*
X169946000Y-17064000D01*
X169912666Y-17097333D01*
X169846000Y-17130666D01*
X169712666Y-17130666D01*
X169646000Y-17097333D01*
X169612666Y-17064000D01*
X169579333Y-16997333D01*
X169579333Y-16830666D01*
X169612666Y-16764000D01*
X169646000Y-16730666D01*
X169712666Y-16697333D01*
X169846000Y-16697333D01*
X169912666Y-16730666D01*
X169946000Y-16764000D01*
X169979333Y-16830666D01*
X170612666Y-14590666D02*
X170612666Y-13890666D01*
X170446000Y-13890666D01*
X170346000Y-13924000D01*
X170279333Y-13990666D01*
X170246000Y-14057333D01*
X170212666Y-14190666D01*
X170212666Y-14290666D01*
X170246000Y-14424000D01*
X170279333Y-14490666D01*
X170346000Y-14557333D01*
X170446000Y-14590666D01*
X170612666Y-14590666D01*
X169979333Y-13890666D02*
X169512666Y-13890666D01*
X169812666Y-14590666D01*
X170212666Y-11984000D02*
X170246000Y-12017333D01*
X170346000Y-12050666D01*
X170412666Y-12050666D01*
X170512666Y-12017333D01*
X170579333Y-11950666D01*
X170612666Y-11884000D01*
X170646000Y-11750666D01*
X170646000Y-11650666D01*
X170612666Y-11517333D01*
X170579333Y-11450666D01*
X170512666Y-11384000D01*
X170412666Y-11350666D01*
X170346000Y-11350666D01*
X170246000Y-11384000D01*
X170212666Y-11417333D01*
X169612666Y-11350666D02*
X169746000Y-11350666D01*
X169812666Y-11384000D01*
X169846000Y-11417333D01*
X169912666Y-11517333D01*
X169946000Y-11650666D01*
X169946000Y-11917333D01*
X169912666Y-11984000D01*
X169879333Y-12017333D01*
X169812666Y-12050666D01*
X169679333Y-12050666D01*
X169612666Y-12017333D01*
X169579333Y-11984000D01*
X169546000Y-11917333D01*
X169546000Y-11750666D01*
X169579333Y-11684000D01*
X169612666Y-11650666D01*
X169679333Y-11617333D01*
X169812666Y-11617333D01*
X169879333Y-11650666D01*
X169912666Y-11684000D01*
X169946000Y-11750666D01*
X170612666Y-9510666D02*
X170612666Y-8810666D01*
X170446000Y-8810666D01*
X170346000Y-8844000D01*
X170279333Y-8910666D01*
X170246000Y-8977333D01*
X170212666Y-9110666D01*
X170212666Y-9210666D01*
X170246000Y-9344000D01*
X170279333Y-9410666D01*
X170346000Y-9477333D01*
X170446000Y-9510666D01*
X170612666Y-9510666D01*
X169612666Y-9044000D02*
X169612666Y-9510666D01*
X169779333Y-8777333D02*
X169946000Y-9277333D01*
X169512666Y-9277333D01*
X170612666Y-6970666D02*
X170612666Y-6270666D01*
X170446000Y-6270666D01*
X170346000Y-6304000D01*
X170279333Y-6370666D01*
X170246000Y-6437333D01*
X170212666Y-6570666D01*
X170212666Y-6670666D01*
X170246000Y-6804000D01*
X170279333Y-6870666D01*
X170346000Y-6937333D01*
X170446000Y-6970666D01*
X170612666Y-6970666D01*
X169779333Y-6270666D02*
X169712666Y-6270666D01*
X169646000Y-6304000D01*
X169612666Y-6337333D01*
X169579333Y-6404000D01*
X169546000Y-6537333D01*
X169546000Y-6704000D01*
X169579333Y-6837333D01*
X169612666Y-6904000D01*
X169646000Y-6937333D01*
X169712666Y-6970666D01*
X169779333Y-6970666D01*
X169846000Y-6937333D01*
X169879333Y-6904000D01*
X169912666Y-6837333D01*
X169946000Y-6704000D01*
X169946000Y-6537333D01*
X169912666Y-6404000D01*
X169879333Y-6337333D01*
X169846000Y-6304000D01*
X169779333Y-6270666D01*
X170612666Y-4430666D02*
X170612666Y-3730666D01*
X170446000Y-3730666D01*
X170346000Y-3764000D01*
X170279333Y-3830666D01*
X170246000Y-3897333D01*
X170212666Y-4030666D01*
X170212666Y-4130666D01*
X170246000Y-4264000D01*
X170279333Y-4330666D01*
X170346000Y-4397333D01*
X170446000Y-4430666D01*
X170612666Y-4430666D01*
X169546000Y-4430666D02*
X169946000Y-4430666D01*
X169746000Y-4430666D02*
X169746000Y-3730666D01*
X169812666Y-3830666D01*
X169879333Y-3897333D01*
X169946000Y-3930666D01*
X170121333Y-1224000D02*
X170188000Y-1190666D01*
X170288000Y-1190666D01*
X170388000Y-1224000D01*
X170454666Y-1290666D01*
X170488000Y-1357333D01*
X170521333Y-1490666D01*
X170521333Y-1590666D01*
X170488000Y-1724000D01*
X170454666Y-1790666D01*
X170388000Y-1857333D01*
X170288000Y-1890666D01*
X170221333Y-1890666D01*
X170121333Y-1857333D01*
X170088000Y-1824000D01*
X170088000Y-1590666D01*
X170221333Y-1590666D01*
X169788000Y-1890666D02*
X169788000Y-1190666D01*
X169388000Y-1890666D01*
X169388000Y-1190666D01*
X169054666Y-1890666D02*
X169054666Y-1190666D01*
X168888000Y-1190666D01*
X168788000Y-1224000D01*
X168721333Y-1290666D01*
X168688000Y-1357333D01*
X168654666Y-1490666D01*
X168654666Y-1590666D01*
X168688000Y-1724000D01*
X168721333Y-1790666D01*
X168788000Y-1857333D01*
X168888000Y-1890666D01*
X169054666Y-1890666D01*
X170121333Y1316000D02*
X170188000Y1349333D01*
X170288000Y1349333D01*
X170388000Y1316000D01*
X170454666Y1249333D01*
X170488000Y1182666D01*
X170521333Y1049333D01*
X170521333Y949333D01*
X170488000Y816000D01*
X170454666Y749333D01*
X170388000Y682666D01*
X170288000Y649333D01*
X170221333Y649333D01*
X170121333Y682666D01*
X170088000Y716000D01*
X170088000Y949333D01*
X170221333Y949333D01*
X169788000Y649333D02*
X169788000Y1349333D01*
X169388000Y649333D01*
X169388000Y1349333D01*
X169054666Y649333D02*
X169054666Y1349333D01*
X168888000Y1349333D01*
X168788000Y1316000D01*
X168721333Y1249333D01*
X168688000Y1182666D01*
X168654666Y1049333D01*
X168654666Y949333D01*
X168688000Y816000D01*
X168721333Y749333D01*
X168788000Y682666D01*
X168888000Y649333D01*
X169054666Y649333D01*
X170612666Y3189333D02*
X170612666Y3889333D01*
X170446000Y3889333D01*
X170346000Y3856000D01*
X170279333Y3789333D01*
X170246000Y3722666D01*
X170212666Y3589333D01*
X170212666Y3489333D01*
X170246000Y3356000D01*
X170279333Y3289333D01*
X170346000Y3222666D01*
X170446000Y3189333D01*
X170612666Y3189333D01*
X169946000Y3822666D02*
X169912666Y3856000D01*
X169846000Y3889333D01*
X169679333Y3889333D01*
X169612666Y3856000D01*
X169579333Y3822666D01*
X169546000Y3756000D01*
X169546000Y3689333D01*
X169579333Y3589333D01*
X169979333Y3189333D01*
X169546000Y3189333D01*
X170612666Y5729333D02*
X170612666Y6429333D01*
X170446000Y6429333D01*
X170346000Y6396000D01*
X170279333Y6329333D01*
X170246000Y6262666D01*
X170212666Y6129333D01*
X170212666Y6029333D01*
X170246000Y5896000D01*
X170279333Y5829333D01*
X170346000Y5762666D01*
X170446000Y5729333D01*
X170612666Y5729333D01*
X169979333Y6429333D02*
X169546000Y6429333D01*
X169779333Y6162666D01*
X169679333Y6162666D01*
X169612666Y6129333D01*
X169579333Y6096000D01*
X169546000Y6029333D01*
X169546000Y5862666D01*
X169579333Y5796000D01*
X169612666Y5762666D01*
X169679333Y5729333D01*
X169879333Y5729333D01*
X169946000Y5762666D01*
X169979333Y5796000D01*
X158187333Y-21844000D02*
X158087333Y-21877333D01*
X158054000Y-21910666D01*
X158020666Y-21977333D01*
X158020666Y-22077333D01*
X158054000Y-22144000D01*
X158087333Y-22177333D01*
X158154000Y-22210666D01*
X158420666Y-22210666D01*
X158420666Y-21510666D01*
X158187333Y-21510666D01*
X158120666Y-21544000D01*
X158087333Y-21577333D01*
X158054000Y-21644000D01*
X158054000Y-21710666D01*
X158087333Y-21777333D01*
X158120666Y-21810666D01*
X158187333Y-21844000D01*
X158420666Y-21844000D01*
X157420666Y-21510666D02*
X157554000Y-21510666D01*
X157620666Y-21544000D01*
X157654000Y-21577333D01*
X157720666Y-21677333D01*
X157754000Y-21810666D01*
X157754000Y-22077333D01*
X157720666Y-22144000D01*
X157687333Y-22177333D01*
X157620666Y-22210666D01*
X157487333Y-22210666D01*
X157420666Y-22177333D01*
X157387333Y-22144000D01*
X157354000Y-22077333D01*
X157354000Y-21910666D01*
X157387333Y-21844000D01*
X157420666Y-21810666D01*
X157487333Y-21777333D01*
X157620666Y-21777333D01*
X157687333Y-21810666D01*
X157720666Y-21844000D01*
X157754000Y-21910666D01*
X158187333Y-19304000D02*
X158087333Y-19337333D01*
X158054000Y-19370666D01*
X158020666Y-19437333D01*
X158020666Y-19537333D01*
X158054000Y-19604000D01*
X158087333Y-19637333D01*
X158154000Y-19670666D01*
X158420666Y-19670666D01*
X158420666Y-18970666D01*
X158187333Y-18970666D01*
X158120666Y-19004000D01*
X158087333Y-19037333D01*
X158054000Y-19104000D01*
X158054000Y-19170666D01*
X158087333Y-19237333D01*
X158120666Y-19270666D01*
X158187333Y-19304000D01*
X158420666Y-19304000D01*
X157754000Y-19037333D02*
X157720666Y-19004000D01*
X157654000Y-18970666D01*
X157487333Y-18970666D01*
X157420666Y-19004000D01*
X157387333Y-19037333D01*
X157354000Y-19104000D01*
X157354000Y-19170666D01*
X157387333Y-19270666D01*
X157787333Y-19670666D01*
X157354000Y-19670666D01*
X158187333Y-16764000D02*
X158087333Y-16797333D01*
X158054000Y-16830666D01*
X158020666Y-16897333D01*
X158020666Y-16997333D01*
X158054000Y-17064000D01*
X158087333Y-17097333D01*
X158154000Y-17130666D01*
X158420666Y-17130666D01*
X158420666Y-16430666D01*
X158187333Y-16430666D01*
X158120666Y-16464000D01*
X158087333Y-16497333D01*
X158054000Y-16564000D01*
X158054000Y-16630666D01*
X158087333Y-16697333D01*
X158120666Y-16730666D01*
X158187333Y-16764000D01*
X158420666Y-16764000D01*
X157787333Y-16430666D02*
X157354000Y-16430666D01*
X157587333Y-16697333D01*
X157487333Y-16697333D01*
X157420666Y-16730666D01*
X157387333Y-16764000D01*
X157354000Y-16830666D01*
X157354000Y-16997333D01*
X157387333Y-17064000D01*
X157420666Y-17097333D01*
X157487333Y-17130666D01*
X157687333Y-17130666D01*
X157754000Y-17097333D01*
X157787333Y-17064000D01*
X158187333Y-14224000D02*
X158087333Y-14257333D01*
X158054000Y-14290666D01*
X158020666Y-14357333D01*
X158020666Y-14457333D01*
X158054000Y-14524000D01*
X158087333Y-14557333D01*
X158154000Y-14590666D01*
X158420666Y-14590666D01*
X158420666Y-13890666D01*
X158187333Y-13890666D01*
X158120666Y-13924000D01*
X158087333Y-13957333D01*
X158054000Y-14024000D01*
X158054000Y-14090666D01*
X158087333Y-14157333D01*
X158120666Y-14190666D01*
X158187333Y-14224000D01*
X158420666Y-14224000D01*
X157354000Y-14590666D02*
X157754000Y-14590666D01*
X157554000Y-14590666D02*
X157554000Y-13890666D01*
X157620666Y-13990666D01*
X157687333Y-14057333D01*
X157754000Y-14090666D01*
X158137333Y-9144000D02*
X158370666Y-9144000D01*
X158370666Y-9510666D02*
X158370666Y-8810666D01*
X158037333Y-8810666D01*
X157470666Y-8810666D02*
X157604000Y-8810666D01*
X157670666Y-8844000D01*
X157704000Y-8877333D01*
X157770666Y-8977333D01*
X157804000Y-9110666D01*
X157804000Y-9377333D01*
X157770666Y-9444000D01*
X157737333Y-9477333D01*
X157670666Y-9510666D01*
X157537333Y-9510666D01*
X157470666Y-9477333D01*
X157437333Y-9444000D01*
X157404000Y-9377333D01*
X157404000Y-9210666D01*
X157437333Y-9144000D01*
X157470666Y-9110666D01*
X157537333Y-9077333D01*
X157670666Y-9077333D01*
X157737333Y-9110666D01*
X157770666Y-9144000D01*
X157804000Y-9210666D01*
X158137333Y-11684000D02*
X158370666Y-11684000D01*
X158370666Y-12050666D02*
X158370666Y-11350666D01*
X158037333Y-11350666D01*
X157837333Y-11350666D02*
X157370666Y-11350666D01*
X157670666Y-12050666D01*
X158137333Y-6604000D02*
X158370666Y-6604000D01*
X158370666Y-6970666D02*
X158370666Y-6270666D01*
X158037333Y-6270666D01*
X157437333Y-6270666D02*
X157770666Y-6270666D01*
X157804000Y-6604000D01*
X157770666Y-6570666D01*
X157704000Y-6537333D01*
X157537333Y-6537333D01*
X157470666Y-6570666D01*
X157437333Y-6604000D01*
X157404000Y-6670666D01*
X157404000Y-6837333D01*
X157437333Y-6904000D01*
X157470666Y-6937333D01*
X157537333Y-6970666D01*
X157704000Y-6970666D01*
X157770666Y-6937333D01*
X157804000Y-6904000D01*
X158137333Y-4064000D02*
X158370666Y-4064000D01*
X158370666Y-4430666D02*
X158370666Y-3730666D01*
X158037333Y-3730666D01*
X157470666Y-3964000D02*
X157470666Y-4430666D01*
X157637333Y-3697333D02*
X157804000Y-4197333D01*
X157370666Y-4197333D01*
X159345333Y-1190666D02*
X159112000Y-1890666D01*
X158878666Y-1190666D01*
X158245333Y-1824000D02*
X158278666Y-1857333D01*
X158378666Y-1890666D01*
X158445333Y-1890666D01*
X158545333Y-1857333D01*
X158612000Y-1790666D01*
X158645333Y-1724000D01*
X158678666Y-1590666D01*
X158678666Y-1490666D01*
X158645333Y-1357333D01*
X158612000Y-1290666D01*
X158545333Y-1224000D01*
X158445333Y-1190666D01*
X158378666Y-1190666D01*
X158278666Y-1224000D01*
X158245333Y-1257333D01*
X157545333Y-1824000D02*
X157578666Y-1857333D01*
X157678666Y-1890666D01*
X157745333Y-1890666D01*
X157845333Y-1857333D01*
X157912000Y-1790666D01*
X157945333Y-1724000D01*
X157978666Y-1590666D01*
X157978666Y-1490666D01*
X157945333Y-1357333D01*
X157912000Y-1290666D01*
X157845333Y-1224000D01*
X157745333Y-1190666D01*
X157678666Y-1190666D01*
X157578666Y-1224000D01*
X157545333Y-1257333D01*
X158795333Y649333D02*
X159028666Y982666D01*
X159195333Y649333D02*
X159195333Y1349333D01*
X158928666Y1349333D01*
X158862000Y1316000D01*
X158828666Y1282666D01*
X158795333Y1216000D01*
X158795333Y1116000D01*
X158828666Y1049333D01*
X158862000Y1016000D01*
X158928666Y982666D01*
X159195333Y982666D01*
X158528666Y682666D02*
X158428666Y649333D01*
X158262000Y649333D01*
X158195333Y682666D01*
X158162000Y716000D01*
X158128666Y782666D01*
X158128666Y849333D01*
X158162000Y916000D01*
X158195333Y949333D01*
X158262000Y982666D01*
X158395333Y1016000D01*
X158462000Y1049333D01*
X158495333Y1082666D01*
X158528666Y1149333D01*
X158528666Y1216000D01*
X158495333Y1282666D01*
X158462000Y1316000D01*
X158395333Y1349333D01*
X158228666Y1349333D01*
X158128666Y1316000D01*
X157928666Y1349333D02*
X157528666Y1349333D01*
X157728666Y649333D02*
X157728666Y1349333D01*
X158945333Y3856000D02*
X159012000Y3889333D01*
X159112000Y3889333D01*
X159212000Y3856000D01*
X159278666Y3789333D01*
X159312000Y3722666D01*
X159345333Y3589333D01*
X159345333Y3489333D01*
X159312000Y3356000D01*
X159278666Y3289333D01*
X159212000Y3222666D01*
X159112000Y3189333D01*
X159045333Y3189333D01*
X158945333Y3222666D01*
X158912000Y3256000D01*
X158912000Y3489333D01*
X159045333Y3489333D01*
X158612000Y3189333D02*
X158612000Y3889333D01*
X158212000Y3189333D01*
X158212000Y3889333D01*
X157878666Y3189333D02*
X157878666Y3889333D01*
X157712000Y3889333D01*
X157612000Y3856000D01*
X157545333Y3789333D01*
X157512000Y3722666D01*
X157478666Y3589333D01*
X157478666Y3489333D01*
X157512000Y3356000D01*
X157545333Y3289333D01*
X157612000Y3222666D01*
X157712000Y3189333D01*
X157878666Y3189333D01*
X159403333Y5475333D02*
X159636666Y5808666D01*
X159803333Y5475333D02*
X159803333Y6175333D01*
X159536666Y6175333D01*
X159470000Y6142000D01*
X159436666Y6108666D01*
X159403333Y6042000D01*
X159403333Y5942000D01*
X159436666Y5875333D01*
X159470000Y5842000D01*
X159536666Y5808666D01*
X159803333Y5808666D01*
X159136666Y5675333D02*
X158803333Y5675333D01*
X159203333Y5475333D02*
X158970000Y6175333D01*
X158736666Y5475333D01*
X158570000Y6175333D02*
X158403333Y5475333D01*
X158270000Y5975333D01*
X158136666Y5475333D01*
X157970000Y6175333D01*
%TD*%
M02*
