%TF.GenerationSoftware,KiCad,Pcbnew,(5.1.8-0-10_14)*%
%TF.CreationDate,2020-12-22T21:08:17+00:00*%
%TF.ProjectId,sudokillall,7375646f-6b69-46c6-9c61-6c6c2e6b6963,rev?*%
%TF.SameCoordinates,Original*%
%TF.FileFunction,Soldermask,Bot*%
%TF.FilePolarity,Negative*%
%FSLAX46Y46*%
G04 Gerber Fmt 4.6, Leading zero omitted, Abs format (unit mm)*
G04 Created by KiCad (PCBNEW (5.1.8-0-10_14)) date 2020-12-22 21:08:17*
%MOMM*%
%LPD*%
G01*
G04 APERTURE LIST*
%ADD10C,1.752600*%
%ADD11R,1.752600X1.752600*%
%ADD12C,2.200000*%
%ADD13C,1.900000*%
%ADD14C,3.400000*%
G04 APERTURE END LIST*
D10*
%TO.C,U1*%
X171620000Y6046000D03*
X171620000Y3506000D03*
X171620000Y966000D03*
X171620000Y-1574000D03*
X171620000Y-4114000D03*
X171620000Y-6654000D03*
X171620000Y-9194000D03*
X171620000Y-11734000D03*
X171620000Y-14274000D03*
X171620000Y-16814000D03*
X171620000Y-19354000D03*
X171620000Y-21894000D03*
X156380000Y-21894000D03*
X156380000Y-19354000D03*
X156380000Y-16814000D03*
X156380000Y-14274000D03*
X156380000Y-11734000D03*
X156380000Y-9194000D03*
X156380000Y-6654000D03*
X156380000Y-4114000D03*
X156380000Y-1574000D03*
X156380000Y966000D03*
X156380000Y3506000D03*
D11*
X156380000Y6046000D03*
%TD*%
D12*
%TO.C,K4*%
X131000000Y-35300000D03*
X126000000Y-33200000D03*
D13*
X131500000Y-39100000D03*
X120500000Y-39100000D03*
D14*
X126000000Y-39100000D03*
%TD*%
D12*
%TO.C,K11*%
X263300000Y-35300000D03*
X258300000Y-33200000D03*
D13*
X263800000Y-39100000D03*
X252800000Y-39100000D03*
D14*
X258300000Y-39100000D03*
%TD*%
D12*
%TO.C,K10*%
X244400000Y-35300000D03*
X239400000Y-33200000D03*
D13*
X244900000Y-39100000D03*
X233900000Y-39100000D03*
D14*
X239400000Y-39100000D03*
%TD*%
D12*
%TO.C,K9*%
X225500000Y-35300000D03*
X220500000Y-33200000D03*
D13*
X226000000Y-39100000D03*
X215000000Y-39100000D03*
D14*
X220500000Y-39100000D03*
%TD*%
D12*
%TO.C,K8*%
X206600000Y-35300000D03*
X201600000Y-33200000D03*
D13*
X207100000Y-39100000D03*
X196100000Y-39100000D03*
D14*
X201600000Y-39100000D03*
%TD*%
D12*
%TO.C,K15*%
X149900000Y-55700000D03*
X144900000Y-53600000D03*
D13*
X150400000Y-59500000D03*
X139400000Y-59500000D03*
D14*
X144900000Y-59500000D03*
%TD*%
D12*
%TO.C,K7*%
X187700000Y-35300000D03*
X182700000Y-33200000D03*
D13*
X188200000Y-39100000D03*
X177200000Y-39100000D03*
D14*
X182700000Y-39100000D03*
%TD*%
D12*
%TO.C,K14*%
X187700000Y-55700000D03*
X182700000Y-53600000D03*
D13*
X188200000Y-59500000D03*
X177200000Y-59500000D03*
D14*
X182700000Y-59500000D03*
%TD*%
D12*
%TO.C,K6*%
X168800000Y-35300000D03*
X163800000Y-33200000D03*
D13*
X169300000Y-39100000D03*
X158300000Y-39100000D03*
D14*
X163800000Y-39100000D03*
%TD*%
D12*
%TO.C,K13*%
X216737488Y-65819122D03*
X213093448Y-61802784D03*
D13*
X215584693Y-69474400D03*
X205615307Y-64825600D03*
D14*
X210600000Y-67150000D03*
%TD*%
D12*
%TO.C,K5*%
X149900000Y-35300000D03*
X144900000Y-33200000D03*
D13*
X150400000Y-39100000D03*
X139400000Y-39100000D03*
D14*
X144900000Y-39100000D03*
%TD*%
D12*
%TO.C,K12*%
X119925590Y-60742939D03*
X114506552Y-60952784D03*
D13*
X121984693Y-63975600D03*
X112015307Y-68624400D03*
D14*
X117000000Y-66300000D03*
%TD*%
D12*
%TO.C,K3*%
X112100000Y-35300000D03*
X107100000Y-33200000D03*
D13*
X112600000Y-39100000D03*
X101600000Y-39100000D03*
D14*
X107100000Y-39100000D03*
%TD*%
D12*
%TO.C,K2*%
X93200000Y-35300000D03*
X88200000Y-33200000D03*
D13*
X93700000Y-39100000D03*
X82700000Y-39100000D03*
D14*
X88200000Y-39100000D03*
%TD*%
D12*
%TO.C,K1*%
X74300000Y-35300000D03*
X69300000Y-33200000D03*
D13*
X74800000Y-39100000D03*
X63800000Y-39100000D03*
D14*
X69300000Y-39100000D03*
%TD*%
M02*
