M48
; DRILL file {KiCad (5.1.8-0-10_14)} date Tuesday, December 22, 2020 at 09:08:21 PM
; FORMAT={-:-/ absolute / inch / decimal}
; #@! TF.CreationDate,2020-12-22T21:08:21+00:00
; #@! TF.GenerationSoftware,Kicad,Pcbnew,(5.1.8-0-10_14)
; #@! TF.FileFunction,NonPlated,1,2,NPTH
FMAT,2
INCH
T1C0.0748
T2C0.1339
%
G90
G05
T1
X9.2087Y-1.5394
X9.6417Y-1.5394
X6.2323Y-1.5394
X6.6654Y-1.5394
X4.7441Y-1.5394
X5.1772Y-1.5394
X4.0Y-1.5394
X4.4331Y-1.5394
X6.9764Y-1.5394
X7.4094Y-1.5394
X8.0951Y-2.5522
X8.4876Y-2.7352
X8.4646Y-1.5394
X8.8976Y-1.5394
X7.7205Y-1.5394
X8.1535Y-1.5394
X3.2559Y-1.5394
X3.689Y-1.5394
X6.9764Y-2.3425
X7.4094Y-2.3425
X5.4882Y-1.5394
X5.9213Y-1.5394
X9.9528Y-1.5394
X10.3858Y-1.5394
X4.4101Y-2.7017
X4.8025Y-2.5187
X2.5118Y-1.5394
X2.9449Y-1.5394
X5.4882Y-2.3425
X5.9213Y-2.3425
T2
X5.7047Y-2.3425
X9.4252Y-1.5394
X6.4488Y-1.5394
X7.1929Y-1.5394
X8.2913Y-2.6437
X8.6811Y-1.5394
X7.937Y-1.5394
X7.1929Y-2.3425
X5.7047Y-1.5394
X10.1693Y-1.5394
X4.6063Y-2.6102
X4.9606Y-1.5394
X4.2165Y-1.5394
X3.4724Y-1.5394
X2.7283Y-1.5394
T0
M30
