M48
; DRILL file {KiCad (5.1.8-0-10_14)} date Tuesday, December 22, 2020 at 09:08:21 PM
; FORMAT={-:-/ absolute / inch / decimal}
; #@! TF.CreationDate,2020-12-22T21:08:21+00:00
; #@! TF.GenerationSoftware,Kicad,Pcbnew,(5.1.8-0-10_14)
; #@! TF.FileFunction,Plated,1,2,PTH
FMAT,2
INCH
T1C0.0157
T2C0.0430
T3C0.0472
%
G90
G05
T1
X5.9843Y-1.7402
X6.0079Y-1.4882
X6.1496Y-1.1339
X6.3071Y-0.8898
X6.315Y-0.4724
X6.4646Y-0.7008
X6.5039Y-0.2992
X6.5276Y-0.8583
X6.5827Y-0.7087
X6.6142Y-0.2913
X6.7244Y-1.2992
X6.7244Y-1.4567
X6.748Y-1.6929
X6.7567Y-0.262
X6.8189Y-1.1654
X6.8425Y-0.2205
X6.937Y-0.2835
X6.9449Y-1.0945
X7.0Y-1.4567
X7.0394Y-1.0945
X7.1496Y-1.0945
X7.4882Y-1.4724
T2
X6.1567Y0.238
X6.1567Y0.138
X6.1567Y0.038
X6.1567Y-0.062
X6.1567Y-0.162
X6.1567Y-0.262
X6.1567Y-0.362
X6.1567Y-0.462
X6.1567Y-0.562
X6.1567Y-0.662
X6.1567Y-0.762
X6.1567Y-0.862
X6.7567Y0.238
X6.7567Y0.138
X6.7567Y0.038
X6.7567Y-0.062
X6.7567Y-0.162
X6.7567Y-0.262
X6.7567Y-0.362
X6.7567Y-0.462
X6.7567Y-0.562
X6.7567Y-0.662
X6.7567Y-0.762
X6.7567Y-0.862
T3
X9.4252Y-1.3071
X9.622Y-1.3898
X6.4488Y-1.3071
X6.6457Y-1.3898
X4.9606Y-1.3071
X5.1575Y-1.3898
X4.2165Y-1.3071
X4.4134Y-1.3898
X7.1929Y-1.3071
X7.3898Y-1.3898
X8.3895Y-2.4332
X8.533Y-2.5913
X8.6811Y-1.3071
X8.878Y-1.3898
X7.937Y-1.3071
X8.1339Y-1.3898
X3.4724Y-1.3071
X3.6693Y-1.3898
X7.1929Y-2.1102
X7.3898Y-2.1929
X5.7047Y-1.3071
X5.9016Y-1.3898
X10.1693Y-1.3071
X10.3661Y-1.3898
X4.5081Y-2.3997
X4.7215Y-2.3915
X2.7283Y-1.3071
X2.9252Y-1.3898
X5.7047Y-2.1102
X5.9016Y-2.1929
T0
M30
