%TF.GenerationSoftware,KiCad,Pcbnew,(5.1.8-0-10_14)*%
%TF.CreationDate,2020-12-22T21:08:17+00:00*%
%TF.ProjectId,sudokillall,7375646f-6b69-46c6-9c61-6c6c2e6b6963,rev?*%
%TF.SameCoordinates,Original*%
%TF.FileFunction,Profile,NP*%
%FSLAX46Y46*%
G04 Gerber Fmt 4.6, Leading zero omitted, Abs format (unit mm)*
G04 Created by KiCad (PCBNEW (5.1.8-0-10_14)) date 2020-12-22 21:08:17*
%MOMM*%
%LPD*%
G01*
G04 APERTURE LIST*
%TA.AperFunction,Profile*%
%ADD10C,0.100000*%
%TD*%
G04 APERTURE END LIST*
D10*
X158200000Y10000000D02*
X160400000Y7800000D01*
X156600000Y10000000D02*
X158200000Y10000000D01*
X153800000Y6600000D02*
X156600000Y10000000D01*
X153800000Y2600000D02*
X153800000Y6600000D01*
X129200000Y-21800000D02*
X153800000Y2600000D01*
X79200000Y-21800000D02*
X129200000Y-21800000D01*
X72000000Y-29000000D02*
X79200000Y-21800000D01*
X59600000Y-29000000D02*
X72000000Y-29000000D01*
X59600000Y-48600000D02*
X59600000Y-29000000D01*
X104400000Y-61400000D02*
X59600000Y-48600000D01*
X112200000Y-79000000D02*
X104400000Y-61400000D01*
X135400000Y-69200000D02*
X112200000Y-79000000D01*
X192000000Y-69200000D02*
X135400000Y-69200000D01*
X215200000Y-80000000D02*
X192000000Y-69200000D01*
X223200000Y-62600000D02*
X215200000Y-80000000D01*
X268400000Y-49200000D02*
X223200000Y-62600000D01*
X268400000Y-28800000D02*
X268400000Y-49200000D01*
X256000000Y-28800000D02*
X268400000Y-28800000D01*
X249400000Y-22200000D02*
X256000000Y-28800000D01*
X196200000Y-22000000D02*
X249400000Y-22200000D01*
X177200000Y-3200000D02*
X196200000Y-22000000D01*
X177200000Y5600000D02*
X177200000Y-3200000D01*
X173200000Y9800000D02*
X177200000Y5600000D01*
X170200000Y9800000D02*
X173200000Y9800000D01*
X168200000Y7800000D02*
X170200000Y9800000D01*
X160400000Y7800000D02*
X168200000Y7800000D01*
M02*
